<?xml version="1.0" encoding="utf-8" standalone="no"?>
<!DOCTYPE svg PUBLIC "-//W3C//DTD SVG 1.1//EN"
  "http://www.w3.org/Graphics/SVG/1.1/DTD/svg11.dtd">
<svg xmlns:xlink="http://www.w3.org/1999/xlink" width="394.395306pt" height="243.069062pt" viewBox="0 0 394.395306 243.069062" xmlns="http://www.w3.org/2000/svg" version="1.1">
 <metadata>
  <rdf:RDF xmlns:dc="http://purl.org/dc/elements/1.1/" xmlns:cc="http://creativecommons.org/ns#" xmlns:rdf="http://www.w3.org/1999/02/22-rdf-syntax-ns#">
   <cc:Work>
    <dc:type rdf:resource="http://purl.org/dc/dcmitype/StillImage"/>
    <dc:date>2026-06-13T16:44:18.920144</dc:date>
    <dc:format>image/svg+xml</dc:format>
    <dc:creator>
     <cc:Agent>
      <dc:title>Matplotlib v3.10.0, https://matplotlib.org/</dc:title>
     </cc:Agent>
    </dc:creator>
   </cc:Work>
  </rdf:RDF>
 </metadata>
 <defs>
  <style type="text/css">*{stroke-linejoin: round; stroke-linecap: butt}</style>
 </defs>
 <g id="figure_1">
  <g id="patch_1">
   <path d="M 0 243.069062 
L 394.395306 243.069062 
L 394.395306 0 
L 0 0 
z
" style="fill: #ffffff"/>
  </g>
  <g id="axes_1">
   <g id="patch_2">
    <path d="M 36.752813 211.29625 
L 338.072812 211.29625 
L 338.072812 31.11625 
L 36.752813 31.11625 
z
" style="fill: #ffffff"/>
   </g>
   <g id="patch_3">
    <path d="M 51.019858 211.29625 
L 95.53304 211.29625 
L 95.53304 136.984297 
L 51.019858 136.984297 
z
" clip-path="url(#p7e6a9726dd)" style="fill: #4e79a7"/>
   </g>
   <g id="patch_4">
    <path d="M 108.08804 211.29625 
L 152.601222 211.29625 
L 152.601222 210.388161 
L 108.08804 210.388161 
z
" clip-path="url(#p7e6a9726dd)" style="fill: #4e79a7"/>
   </g>
   <g id="patch_5">
    <path d="M 165.156222 211.29625 
L 209.669403 211.29625 
L 209.669403 211.29625 
L 165.156222 211.29625 
z
" clip-path="url(#p7e6a9726dd)" style="fill: #4e79a7"/>
   </g>
   <g id="patch_6">
    <path d="M 222.224403 211.29625 
L 266.737585 211.29625 
L 266.737585 211.29625 
L 222.224403 211.29625 
z
" clip-path="url(#p7e6a9726dd)" style="fill: #4e79a7"/>
   </g>
   <g id="patch_7">
    <path d="M 279.292585 211.29625 
L 323.805767 211.29625 
L 323.805767 211.29625 
L 279.292585 211.29625 
z
" clip-path="url(#p7e6a9726dd)" style="fill: #4e79a7"/>
   </g>
   <g id="patch_8">
    <path d="M 51.019858 136.984297 
L 95.53304 136.984297 
L 95.53304 136.908623 
L 51.019858 136.908623 
z
" clip-path="url(#p7e6a9726dd)" style="fill: #f28e2b"/>
   </g>
   <g id="patch_9">
    <path d="M 108.08804 210.388161 
L 152.601222 210.388161 
L 152.601222 209.25305 
L 108.08804 209.25305 
z
" clip-path="url(#p7e6a9726dd)" style="fill: #f28e2b"/>
   </g>
   <g id="patch_10">
    <path d="M 165.156222 211.29625 
L 209.669403 211.29625 
L 209.669403 199.718115 
L 165.156222 199.718115 
z
" clip-path="url(#p7e6a9726dd)" style="fill: #f28e2b"/>
   </g>
   <g id="patch_11">
    <path d="M 222.224403 211.29625 
L 266.737585 211.29625 
L 266.737585 185.567061 
L 222.224403 185.567061 
z
" clip-path="url(#p7e6a9726dd)" style="fill: #f28e2b"/>
   </g>
   <g id="patch_12">
    <path d="M 279.292585 211.29625 
L 323.805767 211.29625 
L 323.805767 65.472285 
L 279.292585 65.472285 
z
" clip-path="url(#p7e6a9726dd)" style="fill: #f28e2b"/>
   </g>
   <g id="patch_13">
    <path d="M 51.019858 136.908623 
L 95.53304 136.908623 
L 95.53304 40.651185 
L 51.019858 40.651185 
z
" clip-path="url(#p7e6a9726dd)" style="fill: #59a14f"/>
   </g>
   <g id="patch_14">
    <path d="M 108.08804 209.25305 
L 152.601222 209.25305 
L 152.601222 91.050127 
L 108.08804 91.050127 
z
" clip-path="url(#p7e6a9726dd)" style="fill: #59a14f"/>
   </g>
   <g id="patch_15">
    <path d="M 165.156222 199.718115 
L 209.669403 199.718115 
L 209.669403 175.578081 
L 165.156222 175.578081 
z
" clip-path="url(#p7e6a9726dd)" style="fill: #59a14f"/>
   </g>
   <g id="patch_16">
    <path d="M 222.224403 185.567061 
L 266.737585 185.567061 
L 266.737585 175.729429 
L 222.224403 175.729429 
z
" clip-path="url(#p7e6a9726dd)" style="fill: #59a14f"/>
   </g>
   <g id="patch_17">
    <path d="M 279.292585 65.472285 
L 323.805767 65.472285 
L 323.805767 63.580433 
L 279.292585 63.580433 
z
" clip-path="url(#p7e6a9726dd)" style="fill: #59a14f"/>
   </g>
   <g id="patch_18">
    <path d="M 51.019858 40.651185 
L 95.53304 40.651185 
L 95.53304 40.575511 
L 51.019858 40.575511 
z
" clip-path="url(#p7e6a9726dd)" style="fill: #e15759"/>
   </g>
   <g id="patch_19">
    <path d="M 108.08804 91.050127 
L 152.601222 91.050127 
L 152.601222 88.552882 
L 108.08804 88.552882 
z
" clip-path="url(#p7e6a9726dd)" style="fill: #e15759"/>
   </g>
   <g id="patch_20">
    <path d="M 165.156222 175.578081 
L 209.669403 175.578081 
L 209.669403 147.805691 
L 165.156222 147.805691 
z
" clip-path="url(#p7e6a9726dd)" style="fill: #e15759"/>
   </g>
   <g id="patch_21">
    <path d="M 222.224403 175.729429 
L 266.737585 175.729429 
L 266.737585 144.778728 
L 222.224403 144.778728 
z
" clip-path="url(#p7e6a9726dd)" style="fill: #e15759"/>
   </g>
   <g id="patch_22">
    <path d="M 279.292585 63.580433 
L 323.805767 63.580433 
L 323.805767 56.240047 
L 279.292585 56.240047 
z
" clip-path="url(#p7e6a9726dd)" style="fill: #e15759"/>
   </g>
   <g id="patch_23">
    <path d="M 51.019858 40.575511 
L 95.53304 40.575511 
L 95.53304 39.894444 
L 51.019858 39.894444 
z
" clip-path="url(#p7e6a9726dd)" style="fill: #76b7b2"/>
   </g>
   <g id="patch_24">
    <path d="M 108.08804 88.552882 
L 152.601222 88.552882 
L 152.601222 55.18061 
L 108.08804 55.18061 
z
" clip-path="url(#p7e6a9726dd)" style="fill: #76b7b2"/>
   </g>
   <g id="patch_25">
    <path d="M 165.156222 147.805691 
L 209.669403 147.805691 
L 209.669403 38.078266 
L 165.156222 38.078266 
z
" clip-path="url(#p7e6a9726dd)" style="fill: #76b7b2"/>
   </g>
   <g id="patch_26">
    <path d="M 222.224403 144.778728 
L 266.737585 144.778728 
L 266.737585 39.667422 
L 222.224403 39.667422 
z
" clip-path="url(#p7e6a9726dd)" style="fill: #76b7b2"/>
   </g>
   <g id="patch_27">
    <path d="M 279.292585 56.240047 
L 323.805767 56.240047 
L 323.805767 34.143213 
L 279.292585 34.143213 
z
" clip-path="url(#p7e6a9726dd)" style="fill: #76b7b2"/>
   </g>
   <g id="patch_28">
    <path d="M 51.019858 39.894444 
L 95.53304 39.894444 
L 95.53304 31.11625 
L 51.019858 31.11625 
z
" clip-path="url(#p7e6a9726dd)" style="fill: #b07aa1"/>
   </g>
   <g id="patch_29">
    <path d="M 108.08804 55.18061 
L 152.601222 55.18061 
L 152.601222 31.11625 
L 108.08804 31.11625 
z
" clip-path="url(#p7e6a9726dd)" style="fill: #b07aa1"/>
   </g>
   <g id="patch_30">
    <path d="M 165.156222 38.078266 
L 209.669403 38.078266 
L 209.669403 31.11625 
L 165.156222 31.11625 
z
" clip-path="url(#p7e6a9726dd)" style="fill: #b07aa1"/>
   </g>
   <g id="patch_31">
    <path d="M 222.224403 39.667422 
L 266.737585 39.667422 
L 266.737585 31.11625 
L 222.224403 31.11625 
z
" clip-path="url(#p7e6a9726dd)" style="fill: #b07aa1"/>
   </g>
   <g id="patch_32">
    <path d="M 279.292585 34.143213 
L 323.805767 34.143213 
L 323.805767 31.11625 
L 279.292585 31.11625 
z
" clip-path="url(#p7e6a9726dd)" style="fill: #b07aa1"/>
   </g>
   <g id="matplotlib.axis_1">
    <g id="xtick_1">
     <g id="line2d_1">
      <defs>
       <path id="mde02738ef8" d="M 0 0 
L 0 3.5 
" style="stroke: #000000; stroke-width: 0.8"/>
      </defs>
      <g>
       <use xlink:href="#mde02738ef8" x="73.276449" y="211.29625" style="stroke: #000000; stroke-width: 0.8"/>
      </g>
     </g>
     <g id="text_1">
      <text style="font-size: 8px; font-family: 'Arial', 'Helvetica', 'DejaVu Sans', sans-serif; text-anchor: middle" x="73.276449" y="224.375" transform="rotate(-0 73.276449 224.375)">0</text>
     </g>
    </g>
    <g id="xtick_2">
     <g id="line2d_2">
      <g>
       <use xlink:href="#mde02738ef8" x="130.344631" y="211.29625" style="stroke: #000000; stroke-width: 0.8"/>
      </g>
     </g>
     <g id="text_2">
      <text style="font-size: 8px; font-family: 'Arial', 'Helvetica', 'DejaVu Sans', sans-serif; text-anchor: middle" x="130.344631" y="224.375" transform="rotate(-0 130.344631 224.375)">1</text>
     </g>
    </g>
    <g id="xtick_3">
     <g id="line2d_3">
      <g>
       <use xlink:href="#mde02738ef8" x="187.412813" y="211.29625" style="stroke: #000000; stroke-width: 0.8"/>
      </g>
     </g>
     <g id="text_3">
      <text style="font-size: 8px; font-family: 'Arial', 'Helvetica', 'DejaVu Sans', sans-serif; text-anchor: middle" x="187.412813" y="224.375" transform="rotate(-0 187.412813 224.375)">2</text>
     </g>
    </g>
    <g id="xtick_4">
     <g id="line2d_4">
      <g>
       <use xlink:href="#mde02738ef8" x="244.480994" y="211.29625" style="stroke: #000000; stroke-width: 0.8"/>
      </g>
     </g>
     <g id="text_4">
      <text style="font-size: 8px; font-family: 'Arial', 'Helvetica', 'DejaVu Sans', sans-serif; text-anchor: middle" x="244.480994" y="224.375" transform="rotate(-0 244.480994 224.375)">3</text>
     </g>
    </g>
    <g id="xtick_5">
     <g id="line2d_5">
      <g>
       <use xlink:href="#mde02738ef8" x="301.549176" y="211.29625" style="stroke: #000000; stroke-width: 0.8"/>
      </g>
     </g>
     <g id="text_5">
      <text style="font-size: 8px; font-family: 'Arial', 'Helvetica', 'DejaVu Sans', sans-serif; text-anchor: middle" x="301.549176" y="224.375" transform="rotate(-0 301.549176 224.375)">4</text>
     </g>
    </g>
    <g id="text_6">
     <text style="font-size: 9px; font-family: 'Arial', 'Helvetica', 'DejaVu Sans', sans-serif; text-anchor: middle" x="187.412813" y="236.877344" transform="rotate(-0 187.412813 236.877344)">time label</text>
    </g>
   </g>
   <g id="matplotlib.axis_2">
    <g id="ytick_1">
     <g id="line2d_6">
      <defs>
       <path id="md4b98b712e" d="M 0 0 
L -3.5 0 
" style="stroke: #000000; stroke-width: 0.8"/>
      </defs>
      <g>
       <use xlink:href="#md4b98b712e" x="36.752813" y="211.29625" style="stroke: #000000; stroke-width: 0.8"/>
      </g>
     </g>
     <g id="text_7">
      <text style="font-size: 8px; font-family: 'Arial', 'Helvetica', 'DejaVu Sans', sans-serif; text-anchor: end" x="29.752813" y="214.335625" transform="rotate(-0 29.752813 214.335625)">0.0</text>
     </g>
    </g>
    <g id="ytick_2">
     <g id="line2d_7">
      <g>
       <use xlink:href="#md4b98b712e" x="36.752813" y="175.26025" style="stroke: #000000; stroke-width: 0.8"/>
      </g>
     </g>
     <g id="text_8">
      <text style="font-size: 8px; font-family: 'Arial', 'Helvetica', 'DejaVu Sans', sans-serif; text-anchor: end" x="29.752813" y="178.299625" transform="rotate(-0 29.752813 178.299625)">0.2</text>
     </g>
    </g>
    <g id="ytick_3">
     <g id="line2d_8">
      <g>
       <use xlink:href="#md4b98b712e" x="36.752813" y="139.22425" style="stroke: #000000; stroke-width: 0.8"/>
      </g>
     </g>
     <g id="text_9">
      <text style="font-size: 8px; font-family: 'Arial', 'Helvetica', 'DejaVu Sans', sans-serif; text-anchor: end" x="29.752813" y="142.263625" transform="rotate(-0 29.752813 142.263625)">0.4</text>
     </g>
    </g>
    <g id="ytick_4">
     <g id="line2d_9">
      <g>
       <use xlink:href="#md4b98b712e" x="36.752813" y="103.18825" style="stroke: #000000; stroke-width: 0.8"/>
      </g>
     </g>
     <g id="text_10">
      <text style="font-size: 8px; font-family: 'Arial', 'Helvetica', 'DejaVu Sans', sans-serif; text-anchor: end" x="29.752813" y="106.227625" transform="rotate(-0 29.752813 106.227625)">0.6</text>
     </g>
    </g>
    <g id="ytick_5">
     <g id="line2d_10">
      <g>
       <use xlink:href="#md4b98b712e" x="36.752813" y="67.15225" style="stroke: #000000; stroke-width: 0.8"/>
      </g>
     </g>
     <g id="text_11">
      <text style="font-size: 8px; font-family: 'Arial', 'Helvetica', 'DejaVu Sans', sans-serif; text-anchor: end" x="29.752813" y="70.191625" transform="rotate(-0 29.752813 70.191625)">0.8</text>
     </g>
    </g>
    <g id="ytick_6">
     <g id="line2d_11">
      <g>
       <use xlink:href="#md4b98b712e" x="36.752813" y="31.11625" style="stroke: #000000; stroke-width: 0.8"/>
      </g>
     </g>
     <g id="text_12">
      <text style="font-size: 8px; font-family: 'Arial', 'Helvetica', 'DejaVu Sans', sans-serif; text-anchor: end" x="29.752813" y="34.155625" transform="rotate(-0 29.752813 34.155625)">1.0</text>
     </g>
    </g>
    <g id="text_13">
     <text style="font-size: 9px; font-family: 'Arial', 'Helvetica', 'DejaVu Sans', sans-serif; text-anchor: middle" x="11.158594" y="121.20625" transform="rotate(-90 11.158594 121.20625)">state-bin proportion</text>
    </g>
   </g>
   <g id="patch_33">
    <path d="M 36.752813 211.29625 
L 36.752813 31.11625 
" style="fill: none; stroke: #000000; stroke-width: 0.8; stroke-linejoin: miter; stroke-linecap: square"/>
   </g>
   <g id="patch_34">
    <path d="M 36.752813 211.29625 
L 338.072813 211.29625 
" style="fill: none; stroke: #000000; stroke-width: 0.8; stroke-linejoin: miter; stroke-linecap: square"/>
   </g>
   <g id="text_14">
    <text style="font-size: 10px; font-family: 'Arial', 'Helvetica', 'DejaVu Sans', sans-serif" transform="translate(36.752813 11.918437)">Equal-depth EB composition</text>
    <text style="font-size: 10px; font-family: 'Arial', 'Helvetica', 'DejaVu Sans', sans-serif" transform="translate(36.752813 23.11625)">equal-depth: n = 2381 per time point</text>
   </g>
   <g id="legend_1">
    <g id="text_15">
     <text style="font-size: 9px; font-family: 'Arial', 'Helvetica', 'DejaVu Sans', sans-serif; text-anchor: start" x="347.299213" y="41.154844" transform="rotate(-0 347.299213 41.154844)">state bin</text>
    </g>
    <g id="patch_35">
     <path d="M 353.342259 53.105312 
L 369.342259 53.105312 
L 369.342259 47.505312 
L 353.342259 47.505312 
z
" style="fill: #4e79a7"/>
    </g>
    <g id="text_16">
     <text style="font-size: 8px; font-family: 'Arial', 'Helvetica', 'DejaVu Sans', sans-serif; text-anchor: start" x="375.742259" y="53.105312" transform="rotate(-0 375.742259 53.105312)">0</text>
    </g>
    <g id="patch_36">
     <path d="M 353.342259 64.847812 
L 369.342259 64.847812 
L 369.342259 59.247812 
L 353.342259 59.247812 
z
" style="fill: #f28e2b"/>
    </g>
    <g id="text_17">
     <text style="font-size: 8px; font-family: 'Arial', 'Helvetica', 'DejaVu Sans', sans-serif; text-anchor: start" x="375.742259" y="64.847812" transform="rotate(-0 375.742259 64.847812)">1</text>
    </g>
    <g id="patch_37">
     <path d="M 353.342259 76.590312 
L 369.342259 76.590312 
L 369.342259 70.990312 
L 353.342259 70.990312 
z
" style="fill: #59a14f"/>
    </g>
    <g id="text_18">
     <text style="font-size: 8px; font-family: 'Arial', 'Helvetica', 'DejaVu Sans', sans-serif; text-anchor: start" x="375.742259" y="76.590312" transform="rotate(-0 375.742259 76.590312)">2</text>
    </g>
    <g id="patch_38">
     <path d="M 353.342259 88.332812 
L 369.342259 88.332812 
L 369.342259 82.732812 
L 353.342259 82.732812 
z
" style="fill: #e15759"/>
    </g>
    <g id="text_19">
     <text style="font-size: 8px; font-family: 'Arial', 'Helvetica', 'DejaVu Sans', sans-serif; text-anchor: start" x="375.742259" y="88.332812" transform="rotate(-0 375.742259 88.332812)">3</text>
    </g>
    <g id="patch_39">
     <path d="M 353.342259 100.075312 
L 369.342259 100.075312 
L 369.342259 94.475312 
L 353.342259 94.475312 
z
" style="fill: #76b7b2"/>
    </g>
    <g id="text_20">
     <text style="font-size: 8px; font-family: 'Arial', 'Helvetica', 'DejaVu Sans', sans-serif; text-anchor: start" x="375.742259" y="100.075312" transform="rotate(-0 375.742259 100.075312)">4</text>
    </g>
    <g id="patch_40">
     <path d="M 353.342259 111.817812 
L 369.342259 111.817812 
L 369.342259 106.217812 
L 353.342259 106.217812 
z
" style="fill: #b07aa1"/>
    </g>
    <g id="text_21">
     <text style="font-size: 8px; font-family: 'Arial', 'Helvetica', 'DejaVu Sans', sans-serif; text-anchor: start" x="375.742259" y="111.817812" transform="rotate(-0 375.742259 111.817812)">5</text>
    </g>
   </g>
  </g>
 </g>
 <defs>
  <clipPath id="p7e6a9726dd">
   <rect x="36.752813" y="31.11625" width="301.32" height="180.18"/>
  </clipPath>
 </defs>
</svg>
