<?xml version="1.0" encoding="utf-8" standalone="no"?>
<!DOCTYPE svg PUBLIC "-//W3C//DTD SVG 1.1//EN"
  "http://www.w3.org/Graphics/SVG/1.1/DTD/svg11.dtd">
<svg xmlns:xlink="http://www.w3.org/1999/xlink" width="402.032806pt" height="243.069062pt" viewBox="0 0 402.032806 243.069062" xmlns="http://www.w3.org/2000/svg" version="1.1">
 <metadata>
  <rdf:RDF xmlns:dc="http://purl.org/dc/elements/1.1/" xmlns:cc="http://creativecommons.org/ns#" xmlns:rdf="http://www.w3.org/1999/02/22-rdf-syntax-ns#">
   <cc:Work>
    <dc:type rdf:resource="http://purl.org/dc/dcmitype/StillImage"/>
    <dc:date>2026-06-22T21:20:56.862576</dc:date>
    <dc:format>image/svg+xml</dc:format>
    <dc:creator>
     <cc:Agent>
      <dc:title>Matplotlib v3.10.0, https://matplotlib.org/</dc:title>
     </cc:Agent>
    </dc:creator>
   </cc:Work>
  </rdf:RDF>
 </metadata>
 <defs>
  <style type="text/css">*{stroke-linejoin: round; stroke-linecap: butt}</style>
 </defs>
 <g id="figure_1">
  <g id="patch_1">
   <path d="M 0 243.069062 
L 402.032806 243.069062 
L 402.032806 0 
L 0 0 
z
" style="fill: #ffffff"/>
  </g>
  <g id="axes_1">
   <g id="patch_2">
    <path d="M 44.390313 211.29625 
L 345.710313 211.29625 
L 345.710313 31.11625 
L 44.390313 31.11625 
z
" style="fill: #ffffff"/>
   </g>
   <g id="patch_3">
    <path d="M 58.657358 211.29625 
L 103.17054 211.29625 
L 103.17054 170.817941 
L 58.657358 170.817941 
z
" clip-path="url(#p5de2616a86)" style="fill: #4e79a7"/>
   </g>
   <g id="patch_4">
    <path d="M 115.72554 211.29625 
L 160.238722 211.29625 
L 160.238722 210.306963 
L 115.72554 210.306963 
z
" clip-path="url(#p5de2616a86)" style="fill: #4e79a7"/>
   </g>
   <g id="patch_5">
    <path d="M 172.793722 211.29625 
L 217.306903 211.29625 
L 217.306903 211.29625 
L 172.793722 211.29625 
z
" clip-path="url(#p5de2616a86)" style="fill: #4e79a7"/>
   </g>
   <g id="patch_6">
    <path d="M 229.861903 211.29625 
L 274.375085 211.29625 
L 274.375085 211.29625 
L 229.861903 211.29625 
z
" clip-path="url(#p5de2616a86)" style="fill: #4e79a7"/>
   </g>
   <g id="patch_7">
    <path d="M 286.930085 211.29625 
L 331.443267 211.29625 
L 331.443267 211.29625 
L 286.930085 211.29625 
z
" clip-path="url(#p5de2616a86)" style="fill: #4e79a7"/>
   </g>
   <g id="patch_8">
    <path d="M 58.657358 170.817941 
L 103.17054 170.817941 
L 103.17054 170.776721 
L 58.657358 170.776721 
z
" clip-path="url(#p5de2616a86)" style="fill: #f28e2b"/>
   </g>
   <g id="patch_9">
    <path d="M 115.72554 210.306963 
L 160.238722 210.306963 
L 160.238722 209.276457 
L 115.72554 209.276457 
z
" clip-path="url(#p5de2616a86)" style="fill: #f28e2b"/>
   </g>
   <g id="patch_10">
    <path d="M 172.793722 211.29625 
L 217.306903 211.29625 
L 217.306903 202.351451 
L 172.793722 202.351451 
z
" clip-path="url(#p5de2616a86)" style="fill: #f28e2b"/>
   </g>
   <g id="patch_11">
    <path d="M 229.861903 211.29625 
L 274.375085 211.29625 
L 274.375085 190.892214 
L 229.861903 190.892214 
z
" clip-path="url(#p5de2616a86)" style="fill: #f28e2b"/>
   </g>
   <g id="patch_12">
    <path d="M 286.930085 211.29625 
L 331.443267 211.29625 
L 331.443267 99.218325 
L 286.930085 99.218325 
z
" clip-path="url(#p5de2616a86)" style="fill: #f28e2b"/>
   </g>
   <g id="patch_13">
    <path d="M 58.657358 170.776721 
L 103.17054 170.776721 
L 103.17054 118.344532 
L 58.657358 118.344532 
z
" clip-path="url(#p5de2616a86)" style="fill: #59a14f"/>
   </g>
   <g id="patch_14">
    <path d="M 115.72554 209.276457 
L 160.238722 209.276457 
L 160.238722 99.177105 
L 115.72554 99.177105 
z
" clip-path="url(#p5de2616a86)" style="fill: #59a14f"/>
   </g>
   <g id="patch_15">
    <path d="M 172.793722 202.351451 
L 217.306903 202.351451 
L 217.306903 183.678667 
L 172.793722 183.678667 
z
" clip-path="url(#p5de2616a86)" style="fill: #59a14f"/>
   </g>
   <g id="patch_16">
    <path d="M 229.861903 190.892214 
L 274.375085 190.892214 
L 274.375085 183.019142 
L 229.861903 183.019142 
z
" clip-path="url(#p5de2616a86)" style="fill: #59a14f"/>
   </g>
   <g id="patch_17">
    <path d="M 286.930085 99.218325 
L 331.443267 99.218325 
L 331.443267 97.858056 
L 286.930085 97.858056 
z
" clip-path="url(#p5de2616a86)" style="fill: #59a14f"/>
   </g>
   <g id="patch_18">
    <path d="M 58.657358 118.344532 
L 103.17054 118.344532 
L 103.17054 118.303312 
L 58.657358 118.303312 
z
" clip-path="url(#p5de2616a86)" style="fill: #e15759"/>
   </g>
   <g id="patch_19">
    <path d="M 115.72554 99.177105 
L 160.238722 99.177105 
L 160.238722 96.580228 
L 115.72554 96.580228 
z
" clip-path="url(#p5de2616a86)" style="fill: #e15759"/>
   </g>
   <g id="patch_20">
    <path d="M 172.793722 183.678667 
L 217.306903 183.678667 
L 217.306903 163.521953 
L 172.793722 163.521953 
z
" clip-path="url(#p5de2616a86)" style="fill: #e15759"/>
   </g>
   <g id="patch_21">
    <path d="M 229.861903 183.019142 
L 274.375085 183.019142 
L 274.375085 156.225964 
L 229.861903 156.225964 
z
" clip-path="url(#p5de2616a86)" style="fill: #e15759"/>
   </g>
   <g id="patch_22">
    <path d="M 286.930085 97.858056 
L 331.443267 97.858056 
L 331.443267 92.169659 
L 286.930085 92.169659 
z
" clip-path="url(#p5de2616a86)" style="fill: #e15759"/>
   </g>
   <g id="patch_23">
    <path d="M 58.657358 118.303312 
L 103.17054 118.303312 
L 103.17054 117.93233 
L 58.657358 117.93233 
z
" clip-path="url(#p5de2616a86)" style="fill: #76b7b2"/>
   </g>
   <g id="patch_24">
    <path d="M 115.72554 96.580228 
L 160.238722 96.580228 
L 160.238722 63.480348 
L 115.72554 63.480348 
z
" clip-path="url(#p5de2616a86)" style="fill: #76b7b2"/>
   </g>
   <g id="patch_25">
    <path d="M 172.793722 163.521953 
L 217.306903 163.521953 
L 217.306903 80.998964 
L 172.793722 80.998964 
z
" clip-path="url(#p5de2616a86)" style="fill: #76b7b2"/>
   </g>
   <g id="patch_26">
    <path d="M 229.861903 156.225964 
L 274.375085 156.225964 
L 274.375085 67.313833 
L 229.861903 67.313833 
z
" clip-path="url(#p5de2616a86)" style="fill: #76b7b2"/>
   </g>
   <g id="patch_27">
    <path d="M 286.930085 92.169659 
L 331.443267 92.169659 
L 331.443267 76.176192 
L 286.930085 76.176192 
z
" clip-path="url(#p5de2616a86)" style="fill: #76b7b2"/>
   </g>
   <g id="patch_28">
    <path d="M 58.657358 117.93233 
L 103.17054 117.93233 
L 103.17054 113.150778 
L 58.657358 113.150778 
z
" clip-path="url(#p5de2616a86)" style="fill: #b07aa1"/>
   </g>
   <g id="patch_29">
    <path d="M 115.72554 63.480348 
L 160.238722 63.480348 
L 160.238722 39.69625 
L 115.72554 39.69625 
z
" clip-path="url(#p5de2616a86)" style="fill: #b07aa1"/>
   </g>
   <g id="patch_30">
    <path d="M 172.793722 80.998964 
L 217.306903 80.998964 
L 217.306903 76.176192 
L 172.793722 76.176192 
z
" clip-path="url(#p5de2616a86)" style="fill: #b07aa1"/>
   </g>
   <g id="patch_31">
    <path d="M 229.861903 67.313833 
L 274.375085 67.313833 
L 274.375085 60.223946 
L 229.861903 60.223946 
z
" clip-path="url(#p5de2616a86)" style="fill: #b07aa1"/>
   </g>
   <g id="patch_32">
    <path d="M 286.930085 76.176192 
L 331.443267 76.176192 
L 331.443267 73.950298 
L 286.930085 73.950298 
z
" clip-path="url(#p5de2616a86)" style="fill: #b07aa1"/>
   </g>
   <g id="matplotlib.axis_1">
    <g id="xtick_1">
     <g id="line2d_1">
      <defs>
       <path id="m8538700c5c" d="M 0 0 
L 0 3.5 
" style="stroke: #000000; stroke-width: 0.8"/>
      </defs>
      <g>
       <use xlink:href="#m8538700c5c" x="80.913949" y="211.29625" style="stroke: #000000; stroke-width: 0.8"/>
      </g>
     </g>
     <g id="text_1">
      <text style="font-size: 8px; font-family: 'Arial', 'Helvetica', 'DejaVu Sans', sans-serif; text-anchor: middle" x="80.913949" y="224.375" transform="rotate(-0 80.913949 224.375)">0</text>
     </g>
    </g>
    <g id="xtick_2">
     <g id="line2d_2">
      <g>
       <use xlink:href="#m8538700c5c" x="137.982131" y="211.29625" style="stroke: #000000; stroke-width: 0.8"/>
      </g>
     </g>
     <g id="text_2">
      <text style="font-size: 8px; font-family: 'Arial', 'Helvetica', 'DejaVu Sans', sans-serif; text-anchor: middle" x="137.982131" y="224.375" transform="rotate(-0 137.982131 224.375)">1</text>
     </g>
    </g>
    <g id="xtick_3">
     <g id="line2d_3">
      <g>
       <use xlink:href="#m8538700c5c" x="195.050313" y="211.29625" style="stroke: #000000; stroke-width: 0.8"/>
      </g>
     </g>
     <g id="text_3">
      <text style="font-size: 8px; font-family: 'Arial', 'Helvetica', 'DejaVu Sans', sans-serif; text-anchor: middle" x="195.050313" y="224.375" transform="rotate(-0 195.050313 224.375)">2</text>
     </g>
    </g>
    <g id="xtick_4">
     <g id="line2d_4">
      <g>
       <use xlink:href="#m8538700c5c" x="252.118494" y="211.29625" style="stroke: #000000; stroke-width: 0.8"/>
      </g>
     </g>
     <g id="text_4">
      <text style="font-size: 8px; font-family: 'Arial', 'Helvetica', 'DejaVu Sans', sans-serif; text-anchor: middle" x="252.118494" y="224.375" transform="rotate(-0 252.118494 224.375)">3</text>
     </g>
    </g>
    <g id="xtick_5">
     <g id="line2d_5">
      <g>
       <use xlink:href="#m8538700c5c" x="309.186676" y="211.29625" style="stroke: #000000; stroke-width: 0.8"/>
      </g>
     </g>
     <g id="text_5">
      <text style="font-size: 8px; font-family: 'Arial', 'Helvetica', 'DejaVu Sans', sans-serif; text-anchor: middle" x="309.186676" y="224.375" transform="rotate(-0 309.186676 224.375)">4</text>
     </g>
    </g>
    <g id="text_6">
     <text style="font-size: 9px; font-family: 'Arial', 'Helvetica', 'DejaVu Sans', sans-serif; text-anchor: middle" x="195.050313" y="236.877344" transform="rotate(-0 195.050313 236.877344)">time label</text>
    </g>
   </g>
   <g id="matplotlib.axis_2">
    <g id="ytick_1">
     <g id="line2d_6">
      <defs>
       <path id="m3804def57c" d="M 0 0 
L -3.5 0 
" style="stroke: #000000; stroke-width: 0.8"/>
      </defs>
      <g>
       <use xlink:href="#m3804def57c" x="44.390313" y="211.29625" style="stroke: #000000; stroke-width: 0.8"/>
      </g>
     </g>
     <g id="text_7">
      <text style="font-size: 8px; font-family: 'Arial', 'Helvetica', 'DejaVu Sans', sans-serif; text-anchor: end" x="37.390313" y="214.335625" transform="rotate(-0 37.390313 214.335625)">0</text>
     </g>
    </g>
    <g id="ytick_2">
     <g id="line2d_7">
      <g>
       <use xlink:href="#m3804def57c" x="44.390313" y="190.686113" style="stroke: #000000; stroke-width: 0.8"/>
      </g>
     </g>
     <g id="text_8">
      <text style="font-size: 8px; font-family: 'Arial', 'Helvetica', 'DejaVu Sans', sans-serif; text-anchor: end" x="37.390313" y="193.725488" transform="rotate(-0 37.390313 193.725488)">500</text>
     </g>
    </g>
    <g id="ytick_3">
     <g id="line2d_8">
      <g>
       <use xlink:href="#m3804def57c" x="44.390313" y="170.075976" style="stroke: #000000; stroke-width: 0.8"/>
      </g>
     </g>
     <g id="text_9">
      <text style="font-size: 8px; font-family: 'Arial', 'Helvetica', 'DejaVu Sans', sans-serif; text-anchor: end" x="37.390313" y="173.115351" transform="rotate(-0 37.390313 173.115351)">1000</text>
     </g>
    </g>
    <g id="ytick_4">
     <g id="line2d_9">
      <g>
       <use xlink:href="#m3804def57c" x="44.390313" y="149.465839" style="stroke: #000000; stroke-width: 0.8"/>
      </g>
     </g>
     <g id="text_10">
      <text style="font-size: 8px; font-family: 'Arial', 'Helvetica', 'DejaVu Sans', sans-serif; text-anchor: end" x="37.390313" y="152.505214" transform="rotate(-0 37.390313 152.505214)">1500</text>
     </g>
    </g>
    <g id="ytick_5">
     <g id="line2d_10">
      <g>
       <use xlink:href="#m3804def57c" x="44.390313" y="128.855702" style="stroke: #000000; stroke-width: 0.8"/>
      </g>
     </g>
     <g id="text_11">
      <text style="font-size: 8px; font-family: 'Arial', 'Helvetica', 'DejaVu Sans', sans-serif; text-anchor: end" x="37.390313" y="131.895077" transform="rotate(-0 37.390313 131.895077)">2000</text>
     </g>
    </g>
    <g id="ytick_6">
     <g id="line2d_11">
      <g>
       <use xlink:href="#m3804def57c" x="44.390313" y="108.245565" style="stroke: #000000; stroke-width: 0.8"/>
      </g>
     </g>
     <g id="text_12">
      <text style="font-size: 8px; font-family: 'Arial', 'Helvetica', 'DejaVu Sans', sans-serif; text-anchor: end" x="37.390313" y="111.28494" transform="rotate(-0 37.390313 111.28494)">2500</text>
     </g>
    </g>
    <g id="ytick_7">
     <g id="line2d_12">
      <g>
       <use xlink:href="#m3804def57c" x="44.390313" y="87.635428" style="stroke: #000000; stroke-width: 0.8"/>
      </g>
     </g>
     <g id="text_13">
      <text style="font-size: 8px; font-family: 'Arial', 'Helvetica', 'DejaVu Sans', sans-serif; text-anchor: end" x="37.390313" y="90.674803" transform="rotate(-0 37.390313 90.674803)">3000</text>
     </g>
    </g>
    <g id="ytick_8">
     <g id="line2d_13">
      <g>
       <use xlink:href="#m3804def57c" x="44.390313" y="67.025292" style="stroke: #000000; stroke-width: 0.8"/>
      </g>
     </g>
     <g id="text_14">
      <text style="font-size: 8px; font-family: 'Arial', 'Helvetica', 'DejaVu Sans', sans-serif; text-anchor: end" x="37.390313" y="70.064667" transform="rotate(-0 37.390313 70.064667)">3500</text>
     </g>
    </g>
    <g id="ytick_9">
     <g id="line2d_14">
      <g>
       <use xlink:href="#m3804def57c" x="44.390313" y="46.415155" style="stroke: #000000; stroke-width: 0.8"/>
      </g>
     </g>
     <g id="text_15">
      <text style="font-size: 8px; font-family: 'Arial', 'Helvetica', 'DejaVu Sans', sans-serif; text-anchor: end" x="37.390313" y="49.45453" transform="rotate(-0 37.390313 49.45453)">4000</text>
     </g>
    </g>
    <g id="text_16">
     <text style="font-size: 9px; font-family: 'Arial', 'Helvetica', 'DejaVu Sans', sans-serif; text-anchor: middle" x="11.158594" y="121.20625" transform="rotate(-90 11.158594 121.20625)">observed/sample cells</text>
    </g>
   </g>
   <g id="patch_33">
    <path d="M 44.390313 211.29625 
L 44.390313 31.11625 
" style="fill: none; stroke: #000000; stroke-width: 0.8; stroke-linejoin: miter; stroke-linecap: square"/>
   </g>
   <g id="patch_34">
    <path d="M 44.390313 211.29625 
L 345.710313 211.29625 
" style="fill: none; stroke: #000000; stroke-width: 0.8; stroke-linejoin: miter; stroke-linecap: square"/>
   </g>
   <g id="text_17">
    <text style="font-size: 10px; font-family: 'Arial', 'Helvetica', 'DejaVu Sans', sans-serif" transform="translate(44.390313 11.918437)">Raw observed EB counts</text>
    <text style="font-size: 10px; font-family: 'Arial', 'Helvetica', 'DejaVu Sans', sans-serif" transform="translate(44.390313 23.11625)">sampling-depth proxy, not calibrated abundance</text>
   </g>
   <g id="legend_1">
    <g id="text_18">
     <text style="font-size: 9px; font-family: 'Arial', 'Helvetica', 'DejaVu Sans', sans-serif; text-anchor: start" x="354.936713" y="41.154844" transform="rotate(-0 354.936713 41.154844)">state bin</text>
    </g>
    <g id="patch_35">
     <path d="M 360.979759 53.105312 
L 376.979759 53.105312 
L 376.979759 47.505312 
L 360.979759 47.505312 
z
" style="fill: #4e79a7"/>
    </g>
    <g id="text_19">
     <text style="font-size: 8px; font-family: 'Arial', 'Helvetica', 'DejaVu Sans', sans-serif; text-anchor: start" x="383.379759" y="53.105312" transform="rotate(-0 383.379759 53.105312)">0</text>
    </g>
    <g id="patch_36">
     <path d="M 360.979759 64.847812 
L 376.979759 64.847812 
L 376.979759 59.247812 
L 360.979759 59.247812 
z
" style="fill: #f28e2b"/>
    </g>
    <g id="text_20">
     <text style="font-size: 8px; font-family: 'Arial', 'Helvetica', 'DejaVu Sans', sans-serif; text-anchor: start" x="383.379759" y="64.847812" transform="rotate(-0 383.379759 64.847812)">1</text>
    </g>
    <g id="patch_37">
     <path d="M 360.979759 76.590312 
L 376.979759 76.590312 
L 376.979759 70.990312 
L 360.979759 70.990312 
z
" style="fill: #59a14f"/>
    </g>
    <g id="text_21">
     <text style="font-size: 8px; font-family: 'Arial', 'Helvetica', 'DejaVu Sans', sans-serif; text-anchor: start" x="383.379759" y="76.590312" transform="rotate(-0 383.379759 76.590312)">2</text>
    </g>
    <g id="patch_38">
     <path d="M 360.979759 88.332812 
L 376.979759 88.332812 
L 376.979759 82.732812 
L 360.979759 82.732812 
z
" style="fill: #e15759"/>
    </g>
    <g id="text_22">
     <text style="font-size: 8px; font-family: 'Arial', 'Helvetica', 'DejaVu Sans', sans-serif; text-anchor: start" x="383.379759" y="88.332812" transform="rotate(-0 383.379759 88.332812)">3</text>
    </g>
    <g id="patch_39">
     <path d="M 360.979759 100.075312 
L 376.979759 100.075312 
L 376.979759 94.475312 
L 360.979759 94.475312 
z
" style="fill: #76b7b2"/>
    </g>
    <g id="text_23">
     <text style="font-size: 8px; font-family: 'Arial', 'Helvetica', 'DejaVu Sans', sans-serif; text-anchor: start" x="383.379759" y="100.075312" transform="rotate(-0 383.379759 100.075312)">4</text>
    </g>
    <g id="patch_40">
     <path d="M 360.979759 111.817812 
L 376.979759 111.817812 
L 376.979759 106.217812 
L 360.979759 106.217812 
z
" style="fill: #b07aa1"/>
    </g>
    <g id="text_24">
     <text style="font-size: 8px; font-family: 'Arial', 'Helvetica', 'DejaVu Sans', sans-serif; text-anchor: start" x="383.379759" y="111.817812" transform="rotate(-0 383.379759 111.817812)">5</text>
    </g>
   </g>
  </g>
 </g>
 <defs>
  <clipPath id="p5de2616a86">
   <rect x="44.390313" y="31.11625" width="301.32" height="180.18"/>
  </clipPath>
 </defs>
</svg>
