<?xml version="1.0" encoding="utf-8" standalone="no"?>
<!DOCTYPE svg PUBLIC "-//W3C//DTD SVG 1.1//EN"
  "http://www.w3.org/Graphics/SVG/1.1/DTD/svg11.dtd">
<svg xmlns:xlink="http://www.w3.org/1999/xlink" width="297.252981pt" height="240.542067pt" viewBox="0 0 297.252981 240.542067" xmlns="http://www.w3.org/2000/svg" version="1.1">
 <metadata>
  <rdf:RDF xmlns:dc="http://purl.org/dc/elements/1.1/" xmlns:cc="http://creativecommons.org/ns#" xmlns:rdf="http://www.w3.org/1999/02/22-rdf-syntax-ns#">
   <cc:Work>
    <dc:type rdf:resource="http://purl.org/dc/dcmitype/StillImage"/>
    <dc:date>2026-06-22T21:15:27.698196</dc:date>
    <dc:format>image/svg+xml</dc:format>
    <dc:creator>
     <cc:Agent>
      <dc:title>Matplotlib v3.10.0, https://matplotlib.org/</dc:title>
     </cc:Agent>
    </dc:creator>
   </cc:Work>
  </rdf:RDF>
 </metadata>
 <defs>
  <style type="text/css">*{stroke-linejoin: round; stroke-linecap: butt}</style>
 </defs>
 <g id="figure_1">
  <g id="patch_1">
   <path d="M 0 240.542067 
L 297.252981 240.542067 
L 297.252981 0 
L 0 0 
z
" style="fill: #ffffff"/>
  </g>
  <g id="axes_1">
   <g id="patch_2">
    <path d="M 48.885 202.985817 
L 289.712446 202.985817 
L 289.712446 22.318125 
L 48.885 22.318125 
z
" style="fill: #ffffff"/>
   </g>
   <g id="line2d_1">
    <path d="M 55.700871 201.363106 
L 61.380764 193.552788 
L 67.060656 185.790624 
L 72.740549 178.124469 
L 78.420441 170.601588 
L 84.100334 163.268362 
L 89.780227 156.170002 
L 95.460119 149.350273 
L 101.140012 142.851221 
L 106.819904 136.712914 
L 112.499797 130.973196 
L 118.17969 125.667456 
L 123.859582 120.828405 
L 129.539475 116.485877 
L 135.219367 112.666646 
L 140.89926 109.394257 
L 146.579152 106.688887 
L 152.259045 104.567215 
L 157.938938 103.042322 
L 163.61883 102.123609 
L 169.298723 101.816741 
L 174.978615 102.123609 
L 180.658508 103.042322 
L 186.338401 104.567215 
L 192.018293 106.688887 
L 197.698186 109.394257 
L 203.378078 112.666646 
L 209.057971 116.485877 
L 214.737863 120.828405 
L 220.417756 125.667456 
L 226.097649 130.973196 
L 231.777541 136.712914 
L 237.457434 142.851221 
L 243.137326 149.350273 
L 248.817219 156.170002 
L 254.497112 163.268362 
L 260.177004 170.601588 
L 265.856897 178.124469 
L 271.536789 185.790624 
L 277.216682 193.552788 
L 282.896574 201.363106 
" clip-path="url(#p641fc8fe43)" style="fill: none; stroke: #d95f02; stroke-opacity: 0.08; stroke-width: 0.9; stroke-linecap: square"/>
   </g>
   <g id="line2d_2">
    <path d="M 55.700871 201.363106 
L 61.380764 188.592463 
L 67.060656 175.900555 
L 72.740549 163.365633 
L 78.420441 151.064977 
L 84.100334 139.074426 
L 89.780227 127.467906 
L 95.460119 116.316974 
L 101.140012 105.690379 
L 106.819904 95.653639 
L 112.499797 86.268633 
L 118.17969 77.593223 
L 123.859582 69.680895 
L 129.539475 62.580431 
L 135.219367 56.335609 
L 140.89926 50.98493 
L 146.579152 46.561382 
L 152.259045 43.092239 
L 157.938938 40.598888 
L 163.61883 39.096701 
L 169.298723 38.594941 
L 174.978615 39.096701 
L 180.658508 40.598888 
L 186.338401 43.092239 
L 192.018293 46.561382 
L 197.698186 50.98493 
L 203.378078 56.335609 
L 209.057971 62.580431 
L 214.737863 69.680895 
L 220.417756 77.593223 
L 226.097649 86.268633 
L 231.777541 95.653639 
L 237.457434 105.690379 
L 243.137326 116.316974 
L 248.817219 127.467906 
L 254.497112 139.074426 
L 260.177004 151.064977 
L 265.856897 163.365633 
L 271.536789 175.900555 
L 277.216682 188.592463 
L 282.896574 201.363106 
" clip-path="url(#p641fc8fe43)" style="fill: none; stroke: #d95f02; stroke-opacity: 0.08; stroke-width: 0.9; stroke-linecap: square"/>
   </g>
   <g id="line2d_3">
    <path d="M 55.700871 201.363106 
L 61.380764 194.090119 
L 67.060656 186.861973 
L 72.740549 179.723231 
L 78.420441 172.717906 
L 84.100334 165.889188 
L 89.780227 159.279179 
L 95.460119 152.928631 
L 101.140012 146.876698 
L 106.819904 141.160691 
L 112.499797 135.815853 
L 118.17969 130.875135 
L 123.859582 126.368999 
L 129.539475 122.325226 
L 135.219367 118.768749 
L 140.89926 115.721493 
L 146.579152 113.202246 
L 152.259045 111.22654 
L 157.938938 109.806556 
L 163.61883 108.951048 
L 169.298723 108.665292 
L 174.978615 108.951048 
L 180.658508 109.806556 
L 186.338401 111.22654 
L 192.018293 113.202246 
L 197.698186 115.721493 
L 203.378078 118.768749 
L 209.057971 122.325226 
L 214.737863 126.368999 
L 220.417756 130.875135 
L 226.097649 135.815853 
L 231.777541 141.160691 
L 237.457434 146.876698 
L 243.137326 152.928631 
L 248.817219 159.279179 
L 254.497112 165.889188 
L 260.177004 172.717906 
L 265.856897 179.723231 
L 271.536789 186.861973 
L 277.216682 194.090119 
L 282.896574 201.363106 
" clip-path="url(#p641fc8fe43)" style="fill: none; stroke: #d95f02; stroke-opacity: 0.08; stroke-width: 0.9; stroke-linecap: square"/>
   </g>
   <g id="line2d_4">
    <path d="M 55.700871 201.363106 
L 61.380764 197.415975 
L 67.060656 193.493179 
L 72.740549 189.618904 
L 78.420441 185.817036 
L 84.100334 182.111014 
L 89.780227 178.523689 
L 95.460119 175.077175 
L 101.140012 171.792723 
L 106.819904 168.690583 
L 112.499797 165.789879 
L 118.17969 163.108496 
L 123.859582 160.662966 
L 129.539475 158.468365 
L 135.219367 156.538225 
L 140.89926 154.884445 
L 146.579152 153.517222 
L 152.259045 152.444984 
L 157.938938 151.674343 
L 163.61883 151.210049 
L 169.298723 151.054966 
L 174.978615 151.210049 
L 180.658508 151.674343 
L 186.338401 152.444984 
L 192.018293 153.517222 
L 197.698186 154.884445 
L 203.378078 156.538225 
L 209.057971 158.468365 
L 214.737863 160.662966 
L 220.417756 163.108496 
L 226.097649 165.789879 
L 231.777541 168.690583 
L 237.457434 171.792723 
L 243.137326 175.077175 
L 248.817219 178.523689 
L 254.497112 182.111014 
L 260.177004 185.817036 
L 265.856897 189.618904 
L 271.536789 193.493179 
L 277.216682 197.415975 
L 282.896574 201.363106 
" clip-path="url(#p641fc8fe43)" style="fill: none; stroke: #d95f02; stroke-opacity: 0.08; stroke-width: 0.9; stroke-linecap: square"/>
   </g>
   <g id="line2d_5">
    <path d="M 55.700871 201.363106 
L 61.380764 198.680176 
L 67.060656 196.013787 
L 72.740549 193.380379 
L 78.420441 190.796187 
L 84.100334 188.277143 
L 89.780227 185.838779 
L 95.460119 183.496127 
L 101.140012 181.263631 
L 106.819904 179.155055 
L 112.499797 177.183399 
L 118.17969 175.360819 
L 123.859582 173.698552 
L 129.539475 172.206846 
L 135.219367 170.894898 
L 140.89926 169.770796 
L 146.579152 168.841472 
L 152.259045 168.112654 
L 157.938938 167.588837 
L 163.61883 167.273249 
L 169.298723 167.167836 
L 174.978615 167.273249 
L 180.658508 167.588837 
L 186.338401 168.112654 
L 192.018293 168.841472 
L 197.698186 169.770796 
L 203.378078 170.894898 
L 209.057971 172.206846 
L 214.737863 173.698552 
L 220.417756 175.360819 
L 226.097649 177.183399 
L 231.777541 179.155055 
L 237.457434 181.263631 
L 243.137326 183.496127 
L 248.817219 185.838779 
L 254.497112 188.277143 
L 260.177004 190.796187 
L 265.856897 193.380379 
L 271.536789 196.013787 
L 277.216682 198.680176 
L 282.896574 201.363106 
" clip-path="url(#p641fc8fe43)" style="fill: none; stroke: #d95f02; stroke-opacity: 0.08; stroke-width: 0.9; stroke-linecap: square"/>
   </g>
   <g id="line2d_6">
    <path d="M 55.700871 201.363106 
L 61.380764 194.591299 
L 67.060656 187.861243 
L 72.740549 181.21443 
L 78.420441 174.69184 
L 84.100334 168.333687 
L 89.780227 162.179172 
L 95.460119 156.266239 
L 101.140012 150.631343 
L 106.819904 145.309225 
L 112.499797 140.332698 
L 118.17969 135.732444 
L 123.859582 131.536824 
L 129.539475 127.771707 
L 135.219367 124.460306 
L 140.89926 121.623035 
L 146.579152 119.277389 
L 152.259045 117.437828 
L 157.938938 116.115695 
L 163.61883 115.31914 
L 169.298723 115.053075 
L 174.978615 115.31914 
L 180.658508 116.115695 
L 186.338401 117.437828 
L 192.018293 119.277389 
L 197.698186 121.623035 
L 203.378078 124.460306 
L 209.057971 127.771707 
L 214.737863 131.536824 
L 220.417756 135.732444 
L 226.097649 140.332698 
L 231.777541 145.309225 
L 237.457434 150.631343 
L 243.137326 156.266239 
L 248.817219 162.179172 
L 254.497112 168.333687 
L 260.177004 174.69184 
L 265.856897 181.21443 
L 271.536789 187.861243 
L 277.216682 194.591299 
L 282.896574 201.363106 
" clip-path="url(#p641fc8fe43)" style="fill: none; stroke: #d95f02; stroke-opacity: 0.08; stroke-width: 0.9; stroke-linecap: square"/>
   </g>
   <g id="line2d_7">
    <path d="M 55.700871 201.363106 
L 61.380764 194.095348 
L 67.060656 186.872398 
L 72.740549 179.738788 
L 78.420441 172.738499 
L 84.100334 165.91469 
L 89.780227 159.309432 
L 95.460119 152.96345 
L 101.140012 146.915867 
L 106.819904 141.20397 
L 112.499797 135.862974 
L 118.17969 130.925807 
L 123.859582 126.422911 
L 129.539475 122.382045 
L 135.219367 118.828124 
L 140.89926 115.783059 
L 146.579152 113.265623 
L 152.259045 111.291337 
L 157.938938 109.872374 
L 163.61883 109.017481 
L 169.298723 108.73193 
L 174.978615 109.017481 
L 180.658508 109.872374 
L 186.338401 111.291337 
L 192.018293 113.265623 
L 197.698186 115.783059 
L 203.378078 118.828124 
L 209.057971 122.382045 
L 214.737863 126.422911 
L 220.417756 130.925807 
L 226.097649 135.862974 
L 231.777541 141.20397 
L 237.457434 146.915867 
L 243.137326 152.96345 
L 248.817219 159.309432 
L 254.497112 165.91469 
L 260.177004 172.738499 
L 265.856897 179.738788 
L 271.536789 186.872398 
L 277.216682 194.095348 
L 282.896574 201.363106 
" clip-path="url(#p641fc8fe43)" style="fill: none; stroke: #d95f02; stroke-opacity: 0.08; stroke-width: 0.9; stroke-linecap: square"/>
   </g>
   <g id="line2d_8">
    <path d="M 55.700871 201.363106 
L 61.380764 189.174387 
L 67.060656 177.060815 
L 72.740549 165.097075 
L 78.420441 153.356927 
L 84.100334 141.912753 
L 89.780227 130.83511 
L 95.460119 120.192296 
L 101.140012 110.049926 
L 106.819904 100.470533 
L 112.499797 91.513176 
L 118.17969 83.233081 
L 123.859582 75.681296 
L 129.539475 68.904382 
L 135.219367 62.94412 
L 140.89926 57.837256 
L 146.579152 53.615278 
L 152.259045 50.304213 
L 157.938938 47.924478 
L 163.61883 46.490742 
L 169.298723 46.011846 
L 174.978615 46.490742 
L 180.658508 47.924478 
L 186.338401 50.304213 
L 192.018293 53.615278 
L 197.698186 57.837256 
L 203.378078 62.94412 
L 209.057971 68.904382 
L 214.737863 75.681296 
L 220.417756 83.233081 
L 226.097649 91.513176 
L 231.777541 100.470533 
L 237.457434 110.049926 
L 243.137326 120.192296 
L 248.817219 130.83511 
L 254.497112 141.912753 
L 260.177004 153.356927 
L 265.856897 165.097075 
L 271.536789 177.060815 
L 277.216682 189.174387 
L 282.896574 201.363106 
" clip-path="url(#p641fc8fe43)" style="fill: none; stroke: #d95f02; stroke-opacity: 0.08; stroke-width: 0.9; stroke-linecap: square"/>
   </g>
   <g id="line2d_9">
    <path d="M 55.700871 201.363106 
L 61.380764 196.737143 
L 67.060656 192.1397 
L 72.740549 187.599123 
L 78.420441 183.143405 
L 84.100334 178.800017 
L 89.780227 174.595739 
L 95.460119 170.55649 
L 101.140012 166.707175 
L 106.819904 163.071524 
L 112.499797 159.671954 
L 118.17969 156.529424 
L 123.859582 153.663309 
L 129.539475 151.091278 
L 135.219367 148.82919 
L 140.89926 146.890991 
L 146.579152 145.288631 
L 152.259045 144.031989 
L 157.938938 143.128812 
L 163.61883 142.584668 
L 169.298723 142.402914 
L 174.978615 142.584668 
L 180.658508 143.128812 
L 186.338401 144.031989 
L 192.018293 145.288631 
L 197.698186 146.890991 
L 203.378078 148.82919 
L 209.057971 151.091278 
L 214.737863 153.663309 
L 220.417756 156.529424 
L 226.097649 159.671954 
L 231.777541 163.071524 
L 237.457434 166.707175 
L 243.137326 170.55649 
L 248.817219 174.595739 
L 254.497112 178.800017 
L 260.177004 183.143405 
L 265.856897 187.599123 
L 271.536789 192.1397 
L 277.216682 196.737143 
L 282.896574 201.363106 
" clip-path="url(#p641fc8fe43)" style="fill: none; stroke: #d95f02; stroke-opacity: 0.08; stroke-width: 0.9; stroke-linecap: square"/>
   </g>
   <g id="line2d_10">
    <path d="M 55.700871 201.363106 
L 61.380764 194.714904 
L 67.060656 188.10769 
L 72.740549 181.582201 
L 78.420441 175.178667 
L 84.100334 168.936569 
L 89.780227 162.894392 
L 95.460119 157.089386 
L 101.140012 151.557343 
L 106.819904 146.33237 
L 112.499797 141.446679 
L 118.17969 136.930392 
L 123.859582 132.811355 
L 129.539475 129.114962 
L 135.219367 125.864003 
L 140.89926 123.078521 
L 146.579152 120.775689 
L 152.259045 118.969706 
L 157.938938 117.671705 
L 163.61883 116.88969 
L 169.298723 116.628482 
L 174.978615 116.88969 
L 180.658508 117.671705 
L 186.338401 118.969706 
L 192.018293 120.775689 
L 197.698186 123.078521 
L 203.378078 125.864003 
L 209.057971 129.114962 
L 214.737863 132.811355 
L 220.417756 136.930392 
L 226.097649 141.446679 
L 231.777541 146.33237 
L 237.457434 151.557343 
L 243.137326 157.089386 
L 248.817219 162.894392 
L 254.497112 168.936569 
L 260.177004 175.178667 
L 265.856897 181.582201 
L 271.536789 188.10769 
L 277.216682 194.714904 
L 282.896574 201.363106 
" clip-path="url(#p641fc8fe43)" style="fill: none; stroke: #d95f02; stroke-opacity: 0.08; stroke-width: 0.9; stroke-linecap: square"/>
   </g>
   <g id="line2d_11">
    <path d="M 55.700871 201.363106 
L 61.380764 195.785224 
L 67.060656 190.241731 
L 72.740549 184.766805 
L 78.420441 179.394201 
L 84.100334 174.157042 
L 89.780227 169.087618 
L 95.460119 164.217183 
L 101.140012 159.575765 
L 106.819904 155.19198 
L 112.499797 151.092855 
L 118.17969 147.303663 
L 123.859582 143.847765 
L 129.539475 140.746469 
L 135.219367 138.018894 
L 140.89926 135.681858 
L 146.579152 133.749768 
L 152.259045 132.234537 
L 157.938938 131.145506 
L 163.61883 130.489391 
L 169.298723 130.270235 
L 174.978615 130.489391 
L 180.658508 131.145506 
L 186.338401 132.234537 
L 192.018293 133.749768 
L 197.698186 135.681858 
L 203.378078 138.018894 
L 209.057971 140.746469 
L 214.737863 143.847765 
L 220.417756 147.303663 
L 226.097649 151.092855 
L 231.777541 155.19198 
L 237.457434 159.575765 
L 243.137326 164.217183 
L 248.817219 169.087618 
L 254.497112 174.157042 
L 260.177004 179.394201 
L 265.856897 184.766805 
L 271.536789 190.241731 
L 277.216682 195.785224 
L 282.896574 201.363106 
" clip-path="url(#p641fc8fe43)" style="fill: none; stroke: #d95f02; stroke-opacity: 0.08; stroke-width: 0.9; stroke-linecap: square"/>
   </g>
   <g id="line2d_12">
    <path d="M 55.700871 201.363106 
L 61.380764 190.864562 
L 67.060656 180.430744 
L 72.740549 170.125982 
L 78.420441 160.013807 
L 84.100334 150.156563 
L 89.780227 140.615026 
L 95.460119 131.44802 
L 101.140012 122.712064 
L 106.819904 114.461018 
L 112.499797 106.745753 
L 118.17969 99.613834 
L 123.859582 93.109234 
L 129.539475 87.272055 
L 135.219367 82.138285 
L 140.89926 77.739576 
L 146.579152 74.103047 
L 152.259045 71.251119 
L 157.938938 69.201374 
L 163.61883 67.966451 
L 169.298723 67.553962 
L 174.978615 67.966451 
L 180.658508 69.201374 
L 186.338401 71.251119 
L 192.018293 74.103047 
L 197.698186 77.739576 
L 203.378078 82.138285 
L 209.057971 87.272055 
L 214.737863 93.109234 
L 220.417756 99.613834 
L 226.097649 106.745753 
L 231.777541 114.461018 
L 237.457434 122.712064 
L 243.137326 131.44802 
L 248.817219 140.615026 
L 254.497112 150.156563 
L 260.177004 160.013807 
L 265.856897 170.125982 
L 271.536789 180.430744 
L 277.216682 190.864562 
L 282.896574 201.363106 
" clip-path="url(#p641fc8fe43)" style="fill: none; stroke: #d95f02; stroke-opacity: 0.08; stroke-width: 0.9; stroke-linecap: square"/>
   </g>
   <g id="line2d_13">
    <path d="M 55.700871 201.363106 
L 61.380764 195.55029 
L 67.060656 189.773312 
L 72.740549 184.067789 
L 78.420441 178.468898 
L 84.100334 173.011156 
L 89.780227 167.728214 
L 95.460119 162.652643 
L 101.140012 157.815734 
L 106.819904 153.247309 
L 112.499797 148.975534 
L 118.17969 145.026746 
L 123.859582 141.42529 
L 129.539475 138.193371 
L 135.219367 135.350914 
L 140.89926 132.915444 
L 146.579152 130.901977 
L 152.259045 129.322927 
L 157.938938 128.188027 
L 163.61883 127.504277 
L 169.298723 127.275891 
L 174.978615 127.504277 
L 180.658508 128.188027 
L 186.338401 129.322927 
L 192.018293 130.901977 
L 197.698186 132.915444 
L 203.378078 135.350914 
L 209.057971 138.193371 
L 214.737863 141.42529 
L 220.417756 145.026746 
L 226.097649 148.975534 
L 231.777541 153.247309 
L 237.457434 157.815734 
L 243.137326 162.652643 
L 248.817219 167.728214 
L 254.497112 173.011156 
L 260.177004 178.468898 
L 265.856897 184.067789 
L 271.536789 189.773312 
L 277.216682 195.55029 
L 282.896574 201.363106 
" clip-path="url(#p641fc8fe43)" style="fill: none; stroke: #d95f02; stroke-opacity: 0.08; stroke-width: 0.9; stroke-linecap: square"/>
   </g>
   <g id="line2d_14">
    <path d="M 55.700871 201.363106 
L 61.380764 191.998892 
L 67.060656 182.69241 
L 72.740549 173.50104 
L 78.420441 164.481449 
L 84.100334 155.689246 
L 89.780227 147.178637 
L 95.460119 139.002093 
L 101.140012 131.210026 
L 106.819904 123.850476 
L 112.499797 116.968817 
L 118.17969 110.607477 
L 123.859582 104.805675 
L 129.539475 99.599182 
L 135.219367 95.020098 
L 140.89926 91.096653 
L 146.579152 87.853038 
L 152.259045 85.30925 
L 157.938938 83.480973 
L 163.61883 82.379478 
L 169.298723 82.011557 
L 174.978615 82.379478 
L 180.658508 83.480973 
L 186.338401 85.30925 
L 192.018293 87.853038 
L 197.698186 91.096653 
L 203.378078 95.020098 
L 209.057971 99.599182 
L 214.737863 104.805675 
L 220.417756 110.607477 
L 226.097649 116.968817 
L 231.777541 123.850476 
L 237.457434 131.210026 
L 243.137326 139.002093 
L 248.817219 147.178637 
L 254.497112 155.689246 
L 260.177004 164.481449 
L 265.856897 173.50104 
L 271.536789 182.69241 
L 277.216682 191.998892 
L 282.896574 201.363106 
" clip-path="url(#p641fc8fe43)" style="fill: none; stroke: #d95f02; stroke-opacity: 0.08; stroke-width: 0.9; stroke-linecap: square"/>
   </g>
   <g id="line2d_15">
    <path d="M 55.700871 201.363106 
L 61.380764 191.810612 
L 67.060656 182.317013 
L 72.740549 172.940838 
L 78.420441 163.739897 
L 84.100334 154.770915 
L 89.780227 146.08919 
L 95.460119 137.748247 
L 101.140012 129.79951 
L 106.819904 122.291987 
L 112.499797 115.271963 
L 118.17969 108.78272 
L 123.859582 102.864266 
L 129.539475 97.55309 
L 135.219367 92.881937 
L 140.89926 88.879607 
L 146.579152 85.570775 
L 152.259045 82.975841 
L 157.938938 81.110804 
L 163.61883 79.987163 
L 169.298723 79.611844 
L 174.978615 79.987163 
L 180.658508 81.110804 
L 186.338401 82.975841 
L 192.018293 85.570775 
L 197.698186 88.879607 
L 203.378078 92.881937 
L 209.057971 97.55309 
L 214.737863 102.864266 
L 220.417756 108.78272 
L 226.097649 115.271963 
L 231.777541 122.291987 
L 237.457434 129.79951 
L 243.137326 137.748247 
L 248.817219 146.08919 
L 254.497112 154.770915 
L 260.177004 163.739897 
L 265.856897 172.940838 
L 271.536789 182.317013 
L 277.216682 191.810612 
L 282.896574 201.363106 
" clip-path="url(#p641fc8fe43)" style="fill: none; stroke: #d95f02; stroke-opacity: 0.08; stroke-width: 0.9; stroke-linecap: square"/>
   </g>
   <g id="line2d_16">
    <path d="M 55.700871 201.363106 
L 61.380764 195.176214 
L 67.060656 189.027467 
L 72.740549 182.954772 
L 78.420441 176.995571 
L 84.100334 171.186605 
L 89.780227 165.563686 
L 95.460119 160.161482 
L 101.140012 155.013301 
L 106.819904 150.150881 
L 112.499797 145.604202 
L 118.17969 141.401295 
L 123.859582 137.568072 
L 129.539475 134.128167 
L 135.219367 131.102788 
L 140.89926 128.510587 
L 146.579152 126.367546 
L 152.259045 124.686877 
L 157.938938 123.478943 
L 163.61883 122.751191 
L 169.298723 122.508107 
L 174.978615 122.751191 
L 180.658508 123.478943 
L 186.338401 124.686877 
L 192.018293 126.367546 
L 197.698186 128.510587 
L 203.378078 131.102788 
L 209.057971 134.128167 
L 214.737863 137.568072 
L 220.417756 141.401295 
L 226.097649 145.604202 
L 231.777541 150.150881 
L 237.457434 155.013301 
L 243.137326 160.161482 
L 248.817219 165.563686 
L 254.497112 171.186605 
L 260.177004 176.995571 
L 265.856897 182.954772 
L 271.536789 189.027467 
L 277.216682 195.176214 
L 282.896574 201.363106 
" clip-path="url(#p641fc8fe43)" style="fill: none; stroke: #d95f02; stroke-opacity: 0.08; stroke-width: 0.9; stroke-linecap: square"/>
   </g>
   <g id="line2d_17">
    <path d="M 55.700871 201.363106 
L 61.380764 194.398037 
L 67.060656 187.475911 
L 72.740549 180.639403 
L 78.420441 173.930664 
L 84.100334 167.391055 
L 89.780227 161.060895 
L 95.460119 154.979212 
L 101.140012 149.183501 
L 106.819904 143.709494 
L 112.499797 138.590941 
L 118.17969 133.8594 
L 123.859582 129.544041 
L 129.539475 125.67147 
L 135.219367 122.265564 
L 140.89926 119.34732 
L 146.579152 116.934731 
L 152.259045 115.042671 
L 157.938938 113.682805 
L 163.61883 112.863518 
L 169.298723 112.589859 
L 174.978615 112.863518 
L 180.658508 113.682805 
L 186.338401 115.042671 
L 192.018293 116.934731 
L 197.698186 119.34732 
L 203.378078 122.265564 
L 209.057971 125.67147 
L 214.737863 129.544041 
L 220.417756 133.8594 
L 226.097649 138.590941 
L 231.777541 143.709494 
L 237.457434 149.183501 
L 243.137326 154.979212 
L 248.817219 161.060895 
L 254.497112 167.391055 
L 260.177004 173.930664 
L 265.856897 180.639403 
L 271.536789 187.475911 
L 277.216682 194.398037 
L 282.896574 201.363106 
" clip-path="url(#p641fc8fe43)" style="fill: none; stroke: #d95f02; stroke-opacity: 0.08; stroke-width: 0.9; stroke-linecap: square"/>
   </g>
   <g id="line2d_18">
    <path d="M 55.700871 201.363106 
L 61.380764 196.381986 
L 67.060656 191.431576 
L 72.740549 186.542398 
L 78.420441 181.744594 
L 84.100334 177.067744 
L 89.780227 172.540684 
L 95.460119 168.191323 
L 101.140012 164.046478 
L 106.819904 160.131702 
L 112.499797 156.471131 
L 118.17969 153.087334 
L 123.859582 150.001174 
L 129.539475 147.231677 
L 135.219367 144.795918 
L 140.89926 142.708914 
L 146.579152 140.983533 
L 152.259045 139.630413 
L 157.938938 138.657895 
L 163.61883 138.071975 
L 169.298723 137.876266 
L 174.978615 138.071975 
L 180.658508 138.657895 
L 186.338401 139.630413 
L 192.018293 140.983533 
L 197.698186 142.708914 
L 203.378078 144.795918 
L 209.057971 147.231677 
L 214.737863 150.001174 
L 220.417756 153.087334 
L 226.097649 156.471131 
L 231.777541 160.131702 
L 237.457434 164.046478 
L 243.137326 168.191323 
L 248.817219 172.540684 
L 254.497112 177.067744 
L 260.177004 181.744594 
L 265.856897 186.542398 
L 271.536789 191.431576 
L 277.216682 196.381986 
L 282.896574 201.363106 
" clip-path="url(#p641fc8fe43)" style="fill: none; stroke: #d95f02; stroke-opacity: 0.08; stroke-width: 0.9; stroke-linecap: square"/>
   </g>
   <g id="line2d_19">
    <path d="M 55.700871 201.363106 
L 61.380764 196.528701 
L 67.060656 191.724102 
L 72.740549 186.978931 
L 78.420441 182.322443 
L 84.100334 177.783346 
L 89.780227 173.389627 
L 95.460119 169.168374 
L 101.140012 165.145612 
L 106.819904 161.346143 
L 112.499797 157.793391 
L 118.17969 154.509262 
L 123.859582 151.514002 
L 129.539475 148.826078 
L 135.219367 146.462063 
L 140.89926 144.43653 
L 146.579152 142.76197 
L 152.259045 141.448704 
L 157.938938 140.504831 
L 163.61883 139.936169 
L 169.298723 139.746225 
L 174.978615 139.936169 
L 180.658508 140.504831 
L 186.338401 141.448704 
L 192.018293 142.76197 
L 197.698186 144.43653 
L 203.378078 146.462063 
L 209.057971 148.826078 
L 214.737863 151.514002 
L 220.417756 154.509262 
L 226.097649 157.793391 
L 231.777541 161.346143 
L 237.457434 165.145612 
L 243.137326 169.168374 
L 248.817219 173.389627 
L 254.497112 177.783346 
L 260.177004 182.322443 
L 265.856897 186.978931 
L 271.536789 191.724102 
L 277.216682 196.528701 
L 282.896574 201.363106 
" clip-path="url(#p641fc8fe43)" style="fill: none; stroke: #d95f02; stroke-opacity: 0.08; stroke-width: 0.9; stroke-linecap: square"/>
   </g>
   <g id="line2d_20">
    <path d="M 55.700871 201.363106 
L 61.380764 194.288242 
L 67.060656 187.256996 
L 72.740549 180.312719 
L 78.420441 173.498225 
L 84.100334 166.855527 
L 89.780227 160.42558 
L 95.460119 154.248027 
L 101.140012 148.360953 
L 106.819904 142.800655 
L 112.499797 137.601415 
L 118.17969 132.795286 
L 123.859582 128.411901 
L 129.539475 124.478284 
L 135.219367 121.018688 
L 140.89926 118.054442 
L 146.579152 115.603821 
L 152.259045 113.681935 
L 157.938938 112.300632 
L 163.61883 111.46843 
L 169.298723 111.190457 
L 174.978615 111.46843 
L 180.658508 112.300632 
L 186.338401 113.681935 
L 192.018293 115.603821 
L 197.698186 118.054442 
L 203.378078 121.018688 
L 209.057971 124.478284 
L 214.737863 128.411901 
L 220.417756 132.795286 
L 226.097649 137.601415 
L 231.777541 142.800655 
L 237.457434 148.360953 
L 243.137326 154.248027 
L 248.817219 160.42558 
L 254.497112 166.855527 
L 260.177004 173.498225 
L 265.856897 180.312719 
L 271.536789 187.256996 
L 277.216682 194.288242 
L 282.896574 201.363106 
" clip-path="url(#p641fc8fe43)" style="fill: none; stroke: #d95f02; stroke-opacity: 0.08; stroke-width: 0.9; stroke-linecap: square"/>
   </g>
   <g id="matplotlib.axis_1">
    <g id="xtick_1">
     <g id="line2d_21">
      <defs>
       <path id="m1e30a31d90" d="M 0 0 
L 0 3.5 
" style="stroke: #000000; stroke-width: 0.8"/>
      </defs>
      <g>
       <use xlink:href="#m1e30a31d90" x="55.700871" y="202.985817" style="stroke: #000000; stroke-width: 0.8"/>
      </g>
     </g>
     <g id="text_1">
      <text style="font-size: 9px; font-family: 'Arial', 'Helvetica', 'DejaVu Sans', sans-serif; text-anchor: middle" x="55.700871" y="216.824411" transform="rotate(-0 55.700871 216.824411)">0.0</text>
     </g>
    </g>
    <g id="xtick_2">
     <g id="line2d_22">
      <g>
       <use xlink:href="#m1e30a31d90" x="101.140012" y="202.985817" style="stroke: #000000; stroke-width: 0.8"/>
      </g>
     </g>
     <g id="text_2">
      <text style="font-size: 9px; font-family: 'Arial', 'Helvetica', 'DejaVu Sans', sans-serif; text-anchor: middle" x="101.140012" y="216.824411" transform="rotate(-0 101.140012 216.824411)">0.2</text>
     </g>
    </g>
    <g id="xtick_3">
     <g id="line2d_23">
      <g>
       <use xlink:href="#m1e30a31d90" x="146.579152" y="202.985817" style="stroke: #000000; stroke-width: 0.8"/>
      </g>
     </g>
     <g id="text_3">
      <text style="font-size: 9px; font-family: 'Arial', 'Helvetica', 'DejaVu Sans', sans-serif; text-anchor: middle" x="146.579152" y="216.824411" transform="rotate(-0 146.579152 216.824411)">0.4</text>
     </g>
    </g>
    <g id="xtick_4">
     <g id="line2d_24">
      <g>
       <use xlink:href="#m1e30a31d90" x="192.018293" y="202.985817" style="stroke: #000000; stroke-width: 0.8"/>
      </g>
     </g>
     <g id="text_4">
      <text style="font-size: 9px; font-family: 'Arial', 'Helvetica', 'DejaVu Sans', sans-serif; text-anchor: middle" x="192.018293" y="216.824411" transform="rotate(-0 192.018293 216.824411)">0.6</text>
     </g>
    </g>
    <g id="xtick_5">
     <g id="line2d_25">
      <g>
       <use xlink:href="#m1e30a31d90" x="237.457434" y="202.985817" style="stroke: #000000; stroke-width: 0.8"/>
      </g>
     </g>
     <g id="text_5">
      <text style="font-size: 9px; font-family: 'Arial', 'Helvetica', 'DejaVu Sans', sans-serif; text-anchor: middle" x="237.457434" y="216.824411" transform="rotate(-0 237.457434 216.824411)">0.8</text>
     </g>
    </g>
    <g id="xtick_6">
     <g id="line2d_26">
      <g>
       <use xlink:href="#m1e30a31d90" x="282.896574" y="202.985817" style="stroke: #000000; stroke-width: 0.8"/>
      </g>
     </g>
     <g id="text_6">
      <text style="font-size: 9px; font-family: 'Arial', 'Helvetica', 'DejaVu Sans', sans-serif; text-anchor: middle" x="282.896574" y="216.824411" transform="rotate(-0 282.896574 216.824411)">1.0</text>
     </g>
    </g>
    <g id="text_7">
     <text style="font-size: 11px; font-family: 'Arial', 'Helvetica', 'DejaVu Sans', sans-serif; text-anchor: middle" x="169.298723" y="231.054411" transform="rotate(-0 169.298723 231.054411)">normalized path time</text>
    </g>
   </g>
   <g id="matplotlib.axis_2">
    <g id="ytick_1">
     <g id="line2d_27">
      <defs>
       <path id="m5ee33b34cf" d="M 0 0 
L -3.5 0 
" style="stroke: #000000; stroke-width: 0.8"/>
      </defs>
      <g>
       <use xlink:href="#m5ee33b34cf" x="48.885" y="201.363106" style="stroke: #000000; stroke-width: 0.8"/>
      </g>
     </g>
     <g id="text_8">
      <text style="font-size: 9px; font-family: 'Arial', 'Helvetica', 'DejaVu Sans', sans-serif; text-anchor: end" x="41.885" y="204.782403" transform="rotate(-0 41.885 204.782403)">0.0</text>
     </g>
    </g>
    <g id="ytick_2">
     <g id="line2d_28">
      <g>
       <use xlink:href="#m5ee33b34cf" x="48.885" y="178.825451" style="stroke: #000000; stroke-width: 0.8"/>
      </g>
     </g>
     <g id="text_9">
      <text style="font-size: 9px; font-family: 'Arial', 'Helvetica', 'DejaVu Sans', sans-serif; text-anchor: end" x="41.885" y="182.244748" transform="rotate(-0 41.885 182.244748)">2.5</text>
     </g>
    </g>
    <g id="ytick_3">
     <g id="line2d_29">
      <g>
       <use xlink:href="#m5ee33b34cf" x="48.885" y="156.287796" style="stroke: #000000; stroke-width: 0.8"/>
      </g>
     </g>
     <g id="text_10">
      <text style="font-size: 9px; font-family: 'Arial', 'Helvetica', 'DejaVu Sans', sans-serif; text-anchor: end" x="41.885" y="159.707093" transform="rotate(-0 41.885 159.707093)">5.0</text>
     </g>
    </g>
    <g id="ytick_4">
     <g id="line2d_30">
      <g>
       <use xlink:href="#m5ee33b34cf" x="48.885" y="133.750141" style="stroke: #000000; stroke-width: 0.8"/>
      </g>
     </g>
     <g id="text_11">
      <text style="font-size: 9px; font-family: 'Arial', 'Helvetica', 'DejaVu Sans', sans-serif; text-anchor: end" x="41.885" y="137.169438" transform="rotate(-0 41.885 137.169438)">7.5</text>
     </g>
    </g>
    <g id="ytick_5">
     <g id="line2d_31">
      <g>
       <use xlink:href="#m5ee33b34cf" x="48.885" y="111.212486" style="stroke: #000000; stroke-width: 0.8"/>
      </g>
     </g>
     <g id="text_12">
      <text style="font-size: 9px; font-family: 'Arial', 'Helvetica', 'DejaVu Sans', sans-serif; text-anchor: end" x="41.885" y="114.631783" transform="rotate(-0 41.885 114.631783)">10.0</text>
     </g>
    </g>
    <g id="ytick_6">
     <g id="line2d_32">
      <g>
       <use xlink:href="#m5ee33b34cf" x="48.885" y="88.674831" style="stroke: #000000; stroke-width: 0.8"/>
      </g>
     </g>
     <g id="text_13">
      <text style="font-size: 9px; font-family: 'Arial', 'Helvetica', 'DejaVu Sans', sans-serif; text-anchor: end" x="41.885" y="92.094128" transform="rotate(-0 41.885 92.094128)">12.5</text>
     </g>
    </g>
    <g id="ytick_7">
     <g id="line2d_33">
      <g>
       <use xlink:href="#m5ee33b34cf" x="48.885" y="66.137176" style="stroke: #000000; stroke-width: 0.8"/>
      </g>
     </g>
     <g id="text_14">
      <text style="font-size: 9px; font-family: 'Arial', 'Helvetica', 'DejaVu Sans', sans-serif; text-anchor: end" x="41.885" y="69.556473" transform="rotate(-0 41.885 69.556473)">15.0</text>
     </g>
    </g>
    <g id="ytick_8">
     <g id="line2d_34">
      <g>
       <use xlink:href="#m5ee33b34cf" x="48.885" y="43.599521" style="stroke: #000000; stroke-width: 0.8"/>
      </g>
     </g>
     <g id="text_15">
      <text style="font-size: 9px; font-family: 'Arial', 'Helvetica', 'DejaVu Sans', sans-serif; text-anchor: end" x="41.885" y="47.018818" transform="rotate(-0 41.885 47.018818)">17.5</text>
     </g>
    </g>
    <g id="text_16">
     <text style="font-size: 11px; font-family: 'Arial', 'Helvetica', 'DejaVu Sans', sans-serif; text-anchor: middle" x="15.558281" y="112.651971" transform="rotate(-90 15.558281 112.651971)">detour displacement (PC-20)</text>
    </g>
   </g>
   <g id="patch_3">
    <path d="M 48.885 202.985817 
L 48.885 22.318125 
" style="fill: none; stroke: #000000; stroke-width: 0.8; stroke-linejoin: miter; stroke-linecap: square"/>
   </g>
   <g id="patch_4">
    <path d="M 48.885 202.985817 
L 289.712446 202.985817 
" style="fill: none; stroke: #000000; stroke-width: 0.8; stroke-linejoin: miter; stroke-linecap: square"/>
   </g>
   <g id="line2d_35">
    <path d="M 55.700871 201.363106 
L 61.380764 198.680176 
L 67.060656 196.013787 
L 72.740549 193.380379 
L 78.420441 190.796187 
L 84.100334 188.277143 
L 89.780227 185.838779 
L 95.460119 183.496127 
L 101.140012 181.263631 
L 106.819904 179.155055 
L 112.499797 177.183399 
L 118.17969 175.360819 
L 123.859582 173.698552 
L 129.539475 172.206846 
L 135.219367 170.894898 
L 140.89926 169.770796 
L 146.579152 168.841472 
L 152.259045 168.112654 
L 157.938938 167.588837 
L 163.61883 167.273249 
L 169.298723 167.167836 
L 174.978615 167.273249 
L 180.658508 167.588837 
L 186.338401 168.112654 
L 192.018293 168.841472 
L 197.698186 169.770796 
L 203.378078 170.894898 
L 209.057971 172.206846 
L 214.737863 173.698552 
L 220.417756 175.360819 
L 226.097649 177.183399 
L 231.777541 179.155055 
L 237.457434 181.263631 
L 243.137326 183.496127 
L 248.817219 185.838779 
L 254.497112 188.277143 
L 260.177004 190.796187 
L 265.856897 193.380379 
L 271.536789 196.013787 
L 277.216682 198.680176 
L 282.896574 201.363106 
" clip-path="url(#p641fc8fe43)" style="fill: none; stroke: #d95f02; stroke-opacity: 0.85; stroke-width: 1.45; stroke-linecap: square"/>
   </g>
   <g id="line2d_36">
    <path d="M 55.700871 201.363106 
L 61.380764 196.381986 
L 67.060656 191.431576 
L 72.740549 186.542398 
L 78.420441 181.744594 
L 84.100334 177.067744 
L 89.780227 172.540684 
L 95.460119 168.191323 
L 101.140012 164.046478 
L 106.819904 160.131702 
L 112.499797 156.471131 
L 118.17969 153.087334 
L 123.859582 150.001174 
L 129.539475 147.231677 
L 135.219367 144.795918 
L 140.89926 142.708914 
L 146.579152 140.983533 
L 152.259045 139.630413 
L 157.938938 138.657895 
L 163.61883 138.071975 
L 169.298723 137.876266 
L 174.978615 138.071975 
L 180.658508 138.657895 
L 186.338401 139.630413 
L 192.018293 140.983533 
L 197.698186 142.708914 
L 203.378078 144.795918 
L 209.057971 147.231677 
L 214.737863 150.001174 
L 220.417756 153.087334 
L 226.097649 156.471131 
L 231.777541 160.131702 
L 237.457434 164.046478 
L 243.137326 168.191323 
L 248.817219 172.540684 
L 254.497112 177.067744 
L 260.177004 181.744594 
L 265.856897 186.542398 
L 271.536789 191.431576 
L 277.216682 196.381986 
L 282.896574 201.363106 
" clip-path="url(#p641fc8fe43)" style="fill: none; stroke: #d95f02; stroke-opacity: 0.85; stroke-width: 1.45; stroke-linecap: square"/>
   </g>
   <g id="line2d_37">
    <path d="M 55.700871 201.363106 
L 61.380764 194.591299 
L 67.060656 187.861243 
L 72.740549 181.21443 
L 78.420441 174.69184 
L 84.100334 168.333687 
L 89.780227 162.179172 
L 95.460119 156.266239 
L 101.140012 150.631343 
L 106.819904 145.309225 
L 112.499797 140.332698 
L 118.17969 135.732444 
L 123.859582 131.536824 
L 129.539475 127.771707 
L 135.219367 124.460306 
L 140.89926 121.623035 
L 146.579152 119.277389 
L 152.259045 117.437828 
L 157.938938 116.115695 
L 163.61883 115.31914 
L 169.298723 115.053075 
L 174.978615 115.31914 
L 180.658508 116.115695 
L 186.338401 117.437828 
L 192.018293 119.277389 
L 197.698186 121.623035 
L 203.378078 124.460306 
L 209.057971 127.771707 
L 214.737863 131.536824 
L 220.417756 135.732444 
L 226.097649 140.332698 
L 231.777541 145.309225 
L 237.457434 150.631343 
L 243.137326 156.266239 
L 248.817219 162.179172 
L 254.497112 168.333687 
L 260.177004 174.69184 
L 265.856897 181.21443 
L 271.536789 187.861243 
L 277.216682 194.591299 
L 282.896574 201.363106 
" clip-path="url(#p641fc8fe43)" style="fill: none; stroke: #d95f02; stroke-opacity: 0.85; stroke-width: 1.45; stroke-linecap: square"/>
   </g>
   <g id="line2d_38">
    <path d="M 55.700871 201.363106 
L 61.380764 193.552788 
L 67.060656 185.790624 
L 72.740549 178.124469 
L 78.420441 170.601588 
L 84.100334 163.268362 
L 89.780227 156.170002 
L 95.460119 149.350273 
L 101.140012 142.851221 
L 106.819904 136.712914 
L 112.499797 130.973196 
L 118.17969 125.667456 
L 123.859582 120.828405 
L 129.539475 116.485877 
L 135.219367 112.666646 
L 140.89926 109.394257 
L 146.579152 106.688887 
L 152.259045 104.567215 
L 157.938938 103.042322 
L 163.61883 102.123609 
L 169.298723 101.816741 
L 174.978615 102.123609 
L 180.658508 103.042322 
L 186.338401 104.567215 
L 192.018293 106.688887 
L 197.698186 109.394257 
L 203.378078 112.666646 
L 209.057971 116.485877 
L 214.737863 120.828405 
L 220.417756 125.667456 
L 226.097649 130.973196 
L 231.777541 136.712914 
L 237.457434 142.851221 
L 243.137326 149.350273 
L 248.817219 156.170002 
L 254.497112 163.268362 
L 260.177004 170.601588 
L 265.856897 178.124469 
L 271.536789 185.790624 
L 277.216682 193.552788 
L 282.896574 201.363106 
" clip-path="url(#p641fc8fe43)" style="fill: none; stroke: #d95f02; stroke-opacity: 0.85; stroke-width: 1.45; stroke-linecap: square"/>
   </g>
   <g id="line2d_39">
    <path d="M 55.700871 201.363106 
L 61.380764 188.592463 
L 67.060656 175.900555 
L 72.740549 163.365633 
L 78.420441 151.064977 
L 84.100334 139.074426 
L 89.780227 127.467906 
L 95.460119 116.316974 
L 101.140012 105.690379 
L 106.819904 95.653639 
L 112.499797 86.268633 
L 118.17969 77.593223 
L 123.859582 69.680895 
L 129.539475 62.580431 
L 135.219367 56.335609 
L 140.89926 50.98493 
L 146.579152 46.561382 
L 152.259045 43.092239 
L 157.938938 40.598888 
L 163.61883 39.096701 
L 169.298723 38.594941 
L 174.978615 39.096701 
L 180.658508 40.598888 
L 186.338401 43.092239 
L 192.018293 46.561382 
L 197.698186 50.98493 
L 203.378078 56.335609 
L 209.057971 62.580431 
L 214.737863 69.680895 
L 220.417756 77.593223 
L 226.097649 86.268633 
L 231.777541 95.653639 
L 237.457434 105.690379 
L 243.137326 116.316974 
L 248.817219 127.467906 
L 254.497112 139.074426 
L 260.177004 151.064977 
L 265.856897 163.365633 
L 271.536789 175.900555 
L 277.216682 188.592463 
L 282.896574 201.363106 
" clip-path="url(#p641fc8fe43)" style="fill: none; stroke: #d95f02; stroke-opacity: 0.85; stroke-width: 1.45; stroke-linecap: square"/>
   </g>
   <g id="text_17">
    <text style="font-size: 9px; font-family: 'Arial', 'Helvetica', 'DejaVu Sans', sans-serif; text-anchor: start; fill: #1f77b4" x="73.876527" y="190.025572" transform="rotate(-0 73.876527 190.025572)">straight</text>
   </g>
   <g id="text_18">
    <text style="font-size: 9px; font-family: 'Arial', 'Helvetica', 'DejaVu Sans', sans-serif; text-anchor: middle; fill: #d95f02" x="182.930465" y="75.787582" transform="rotate(-0 182.930465 75.787582)">detour</text>
   </g>
   <g id="patch_5">
    <path d="M 66.788449 197.216178 
Q 169.298812 197.216178 271.809176 197.216178 
" style="fill: none; opacity: 0.65; stroke: #6b7280; stroke-width: 0.75; stroke-linecap: round"/>
    <path d="M 66.788449 188.216178 
L 66.788449 188.216178 
L 66.788449 206.216178 
L 66.788449 206.216178 
" style="fill: none; opacity: 0.65; stroke: #6b7280; stroke-width: 0.75; stroke-linecap: round"/>
    <path d="M 271.809176 206.216178 
L 271.809176 206.216178 
L 271.809176 188.216178 
L 271.809176 188.216178 
" style="fill: none; opacity: 0.65; stroke: #6b7280; stroke-width: 0.75; stroke-linecap: round"/>
   </g>
   <g id="text_19">
    <text style="font-size: 8.3px; font-family: 'Arial', 'Helvetica', 'DejaVu Sans', sans-serif; text-anchor: middle; fill: #6b7280" x="169.298723" y="193.867326" transform="rotate(-0 169.298723 193.867326)">endpoints fixed</text>
   </g>
   <g id="text_20">
    <text style="font-size: 12px; font-family: 'Arial', 'Helvetica', 'DejaVu Sans', sans-serif; text-anchor: middle" x="169.298723" y="16.318125" transform="rotate(-0 169.298723 16.318125)">Path construction with fixed endpoints</text>
   </g>
   <g id="line2d_40">
    <path d="M 55.700871 201.363106 
L 61.380764 201.363106 
L 67.060656 201.363106 
L 72.740549 201.363106 
L 78.420441 201.363106 
L 84.100334 201.363106 
L 89.780227 201.363106 
L 95.460119 201.363106 
L 101.140012 201.363106 
L 106.819904 201.363106 
L 112.499797 201.363106 
L 118.17969 201.363106 
L 123.859582 201.363106 
L 129.539475 201.363106 
L 135.219367 201.363106 
L 140.89926 201.363106 
L 146.579152 201.363106 
L 152.259045 201.363106 
L 157.938938 201.363106 
L 163.61883 201.363106 
L 169.298723 201.363106 
L 174.978615 201.363106 
L 180.658508 201.363106 
L 186.338401 201.363106 
L 192.018293 201.363106 
L 197.698186 201.363106 
L 203.378078 201.363106 
L 209.057971 201.363106 
L 214.737863 201.363106 
L 220.417756 201.363106 
L 226.097649 201.363106 
L 231.777541 201.363106 
L 237.457434 201.363106 
L 243.137326 201.363106 
L 248.817219 201.363106 
L 254.497112 201.363106 
L 260.177004 201.363106 
L 265.856897 201.363106 
L 271.536789 201.363106 
L 277.216682 201.363106 
L 282.896574 201.363106 
" clip-path="url(#p641fc8fe43)" style="fill: none; stroke: #1f77b4; stroke-width: 2.4; stroke-linecap: square"/>
   </g>
   <g id="PathCollection_1">
    <defs>
     <path id="mb5b722d276" d="M 0 3.082207 
C 0.817411 3.082207 1.601453 2.757446 2.179449 2.179449 
C 2.757446 1.601453 3.082207 0.817411 3.082207 0 
C 3.082207 -0.817411 2.757446 -1.601453 2.179449 -2.179449 
C 1.601453 -2.757446 0.817411 -3.082207 0 -3.082207 
C -0.817411 -3.082207 -1.601453 -2.757446 -2.179449 -2.179449 
C -2.757446 -1.601453 -3.082207 -0.817411 -3.082207 0 
C -3.082207 0.817411 -2.757446 1.601453 -2.179449 2.179449 
C -1.601453 2.757446 -0.817411 3.082207 0 3.082207 
z
"/>
    </defs>
    <g clip-path="url(#p641fc8fe43)">
     <use xlink:href="#mb5b722d276" x="55.700871" y="201.363106" style="fill: #1f77b4"/>
    </g>
   </g>
   <g id="PathCollection_2">
    <defs>
     <path id="m72d9281ebc" d="M 0 3.082207 
C 0.817411 3.082207 1.601453 2.757446 2.179449 2.179449 
C 2.757446 1.601453 3.082207 0.817411 3.082207 0 
C 3.082207 -0.817411 2.757446 -1.601453 2.179449 -2.179449 
C 1.601453 -2.757446 0.817411 -3.082207 0 -3.082207 
C -0.817411 -3.082207 -1.601453 -2.757446 -2.179449 -2.179449 
C -2.757446 -1.601453 -3.082207 -0.817411 -3.082207 0 
C -3.082207 0.817411 -2.757446 1.601453 -2.179449 2.179449 
C -1.601453 2.757446 -0.817411 3.082207 0 3.082207 
z
"/>
    </defs>
    <g clip-path="url(#p641fc8fe43)">
     <use xlink:href="#m72d9281ebc" x="282.896574" y="201.363106" style="fill: #d95f02"/>
    </g>
   </g>
  </g>
 </g>
 <defs>
  <clipPath id="p641fc8fe43">
   <rect x="48.885" y="22.318125" width="240.827446" height="180.667692"/>
  </clipPath>
 </defs>
</svg>
