<?xml version="1.0" encoding="utf-8" standalone="no"?>
<!DOCTYPE svg PUBLIC "-//W3C//DTD SVG 1.1//EN"
  "http://www.w3.org/Graphics/SVG/1.1/DTD/svg11.dtd">
<svg xmlns:xlink="http://www.w3.org/1999/xlink" width="296.956987pt" height="238.954375pt" viewBox="0 0 296.956987 238.954375" xmlns="http://www.w3.org/2000/svg" version="1.1">
 <metadata>
  <rdf:RDF xmlns:dc="http://purl.org/dc/elements/1.1/" xmlns:cc="http://creativecommons.org/ns#" xmlns:rdf="http://www.w3.org/1999/02/22-rdf-syntax-ns#">
   <cc:Work>
    <dc:type rdf:resource="http://purl.org/dc/dcmitype/StillImage"/>
    <dc:date>2026-06-13T16:32:36.278177</dc:date>
    <dc:format>image/svg+xml</dc:format>
    <dc:creator>
     <cc:Agent>
      <dc:title>Matplotlib v3.10.0, https://matplotlib.org/</dc:title>
     </cc:Agent>
    </dc:creator>
   </cc:Work>
  </rdf:RDF>
 </metadata>
 <defs>
  <style type="text/css">*{stroke-linejoin: round; stroke-linecap: butt}</style>
 </defs>
 <g id="figure_1">
  <g id="patch_1">
   <path d="M 0 238.954375 
L 296.956987 238.954375 
L 296.956987 0 
L 0 0 
z
" style="fill: #ffffff"/>
  </g>
  <g id="axes_1">
   <g id="patch_2">
    <path d="M 48.885 201.398125 
L 289.40783 201.398125 
L 289.40783 23.318125 
L 48.885 23.318125 
z
" style="fill: #ffffff"/>
   </g>
   <g id="line2d_1">
    <path d="M 55.69225 199.798656 
L 61.364958 192.100205 
L 67.037666 184.449217 
L 72.710375 176.892864 
L 78.383083 169.477733 
L 84.055791 162.24954 
L 89.728499 155.25285 
L 95.401208 148.5308 
L 101.073916 142.124833 
L 106.746624 136.074444 
L 112.419333 130.416937 
L 118.092041 125.18719 
L 123.764749 120.417448 
L 129.437457 116.137118 
L 135.110166 112.372589 
L 140.782874 109.147071 
L 146.455582 106.48045 
L 152.12829 104.389167 
L 157.800999 102.886114 
L 163.473707 101.98056 
L 169.146415 101.678087 
L 174.819123 101.98056 
L 180.491832 102.886114 
L 186.16454 104.389167 
L 191.837248 106.48045 
L 197.509956 109.147071 
L 203.182665 112.372589 
L 208.855373 116.137118 
L 214.528081 120.417448 
L 220.200789 125.18719 
L 225.873498 130.416937 
L 231.546206 136.074444 
L 237.218914 142.124833 
L 242.891622 148.5308 
L 248.564331 155.25285 
L 254.237039 162.24954 
L 259.909747 169.477733 
L 265.582456 176.892864 
L 271.255164 184.449217 
L 276.927872 192.100205 
L 282.60058 199.798656 
" clip-path="url(#p6a86d0c982)" style="fill: none; stroke: #d95f02; stroke-opacity: 0.08; stroke-width: 0.9; stroke-linecap: square"/>
   </g>
   <g id="line2d_2">
    <path d="M 55.69225 199.798656 
L 61.364958 187.210926 
L 67.037666 174.700804 
L 72.710375 162.345418 
L 78.383083 150.220944 
L 84.055791 138.402133 
L 89.728499 126.961852 
L 95.401208 115.970634 
L 101.073916 105.496244 
L 106.746624 95.603259 
L 112.419333 86.352674 
L 118.092041 77.801521 
L 123.764749 70.002521 
L 129.437457 63.003757 
L 135.110166 56.848379 
L 140.782874 51.574337 
L 146.455582 47.214148 
L 152.12829 43.794692 
L 157.800999 41.337053 
L 163.473707 39.856383 
L 169.146415 39.36181 
L 174.819123 39.856383 
L 180.491832 41.337053 
L 186.16454 43.794692 
L 191.837248 47.214148 
L 197.509956 51.574337 
L 203.182665 56.848379 
L 208.855373 63.003757 
L 214.528081 70.002521 
L 220.200789 77.801521 
L 225.873498 86.352674 
L 231.546206 95.603259 
L 237.218914 105.496244 
L 242.891622 115.970634 
L 248.564331 126.961852 
L 254.237039 138.402133 
L 259.909747 150.220944 
L 265.582456 162.345418 
L 271.255164 174.700804 
L 276.927872 187.210926 
L 282.60058 199.798656 
" clip-path="url(#p6a86d0c982)" style="fill: none; stroke: #d95f02; stroke-opacity: 0.08; stroke-width: 0.9; stroke-linecap: square"/>
   </g>
   <g id="line2d_3">
    <path d="M 55.69225 199.798656 
L 61.364958 192.62984 
L 67.037666 185.505222 
L 72.710375 178.468727 
L 78.383083 171.563739 
L 84.055791 164.832829 
L 89.728499 158.317494 
L 95.401208 152.057905 
L 101.073916 146.092653 
L 106.746624 140.458517 
L 112.419333 135.190232 
L 118.092041 130.32028 
L 123.764749 125.878685 
L 129.437457 121.892831 
L 135.110166 118.387292 
L 140.782874 115.383682 
L 146.455582 112.900518 
L 152.12829 110.95311 
L 157.800999 109.553464 
L 163.473707 108.71021 
L 169.146415 108.428546 
L 174.819123 108.71021 
L 180.491832 109.553464 
L 186.16454 110.95311 
L 191.837248 112.900518 
L 197.509956 115.383682 
L 203.182665 118.387292 
L 208.855373 121.892831 
L 214.528081 125.878685 
L 220.200789 130.32028 
L 225.873498 135.190232 
L 231.546206 140.458517 
L 237.218914 146.092653 
L 242.891622 152.057905 
L 248.564331 158.317494 
L 254.237039 164.832829 
L 259.909747 171.563739 
L 265.582456 178.468727 
L 271.255164 185.505222 
L 276.927872 192.62984 
L 282.60058 199.798656 
" clip-path="url(#p6a86d0c982)" style="fill: none; stroke: #d95f02; stroke-opacity: 0.08; stroke-width: 0.9; stroke-linecap: square"/>
   </g>
   <g id="line2d_4">
    <path d="M 55.69225 199.798656 
L 61.364958 195.908059 
L 67.037666 192.041449 
L 72.710375 188.222665 
L 78.383083 184.475251 
L 84.055791 180.822311 
L 89.728499 177.286366 
L 95.401208 173.889217 
L 101.073916 170.651808 
L 106.746624 167.594099 
L 112.419333 164.734942 
L 118.092041 162.091965 
L 123.764749 159.681461 
L 129.437457 157.518294 
L 135.110166 155.615799 
L 140.782874 153.985706 
L 146.455582 152.638065 
L 152.12829 151.581185 
L 157.800999 150.821582 
L 163.473707 150.363938 
L 169.146415 150.211076 
L 174.819123 150.363938 
L 180.491832 150.821582 
L 186.16454 151.581185 
L 191.837248 152.638065 
L 197.509956 153.985706 
L 203.182665 155.615799 
L 208.855373 157.518294 
L 214.528081 159.681461 
L 220.200789 162.091965 
L 225.873498 164.734942 
L 231.546206 167.594099 
L 237.218914 170.651808 
L 242.891622 173.889217 
L 248.564331 177.286366 
L 254.237039 180.822311 
L 259.909747 184.475251 
L 265.582456 188.222665 
L 271.255164 192.041449 
L 276.927872 195.908059 
L 282.60058 199.798656 
" clip-path="url(#p6a86d0c982)" style="fill: none; stroke: #d95f02; stroke-opacity: 0.08; stroke-width: 0.9; stroke-linecap: square"/>
   </g>
   <g id="line2d_5">
    <path d="M 55.69225 199.798656 
L 61.364958 197.154153 
L 67.037666 194.525955 
L 72.710375 191.930265 
L 78.383083 189.383086 
L 84.055791 186.900122 
L 89.728499 184.496682 
L 95.401208 182.187584 
L 101.073916 179.987064 
L 106.746624 177.908689 
L 112.419333 175.965273 
L 118.092041 174.168798 
L 123.764749 172.530339 
L 129.437457 171.059999 
L 135.110166 169.766842 
L 140.782874 168.658841 
L 146.455582 167.742827 
L 152.12829 167.024448 
L 157.800999 166.508133 
L 163.473707 166.197066 
L 169.146415 166.093163 
L 174.819123 166.197066 
L 180.491832 166.508133 
L 186.16454 167.024448 
L 191.837248 167.742827 
L 197.509956 168.658841 
L 203.182665 169.766842 
L 208.855373 171.059999 
L 214.528081 172.530339 
L 220.200789 174.168798 
L 225.873498 175.965273 
L 231.546206 177.908689 
L 237.218914 179.987064 
L 242.891622 182.187584 
L 248.564331 184.496682 
L 254.237039 186.900122 
L 259.909747 189.383086 
L 265.582456 191.930265 
L 271.255164 194.525955 
L 276.927872 197.154153 
L 282.60058 199.798656 
" clip-path="url(#p6a86d0c982)" style="fill: none; stroke: #d95f02; stroke-opacity: 0.08; stroke-width: 0.9; stroke-linecap: square"/>
   </g>
   <g id="line2d_6">
    <path d="M 55.69225 199.798656 
L 61.364958 193.123841 
L 67.037666 186.490179 
L 72.710375 179.938568 
L 78.383083 173.5094 
L 84.055791 167.242315 
L 89.728499 161.175951 
L 95.401208 155.347708 
L 101.073916 149.79352 
L 106.746624 144.547631 
L 112.419333 139.642383 
L 118.092041 135.108017 
L 123.764749 130.972492 
L 129.437457 127.261302 
L 135.110166 123.997329 
L 140.782874 121.200697 
L 146.455582 118.888647 
L 152.12829 117.075435 
L 157.800999 115.772238 
L 163.473707 114.987092 
L 169.146415 114.724838 
L 174.819123 114.987092 
L 180.491832 115.772238 
L 186.16454 117.075435 
L 191.837248 118.888647 
L 197.509956 121.200697 
L 203.182665 123.997329 
L 208.855373 127.261302 
L 214.528081 130.972492 
L 220.200789 135.108017 
L 225.873498 139.642383 
L 231.546206 144.547631 
L 237.218914 149.79352 
L 242.891622 155.347708 
L 248.564331 161.175951 
L 254.237039 167.242315 
L 259.909747 173.5094 
L 265.582456 179.938568 
L 271.255164 186.490179 
L 276.927872 193.123841 
L 282.60058 199.798656 
" clip-path="url(#p6a86d0c982)" style="fill: none; stroke: #d95f02; stroke-opacity: 0.08; stroke-width: 0.9; stroke-linecap: square"/>
   </g>
   <g id="line2d_7">
    <path d="M 55.69225 199.798656 
L 61.364958 192.634993 
L 67.037666 185.515497 
L 72.710375 178.484061 
L 78.383083 171.584037 
L 84.055791 164.857965 
L 89.728499 158.347314 
L 95.401208 152.092225 
L 101.073916 146.131261 
L 106.746624 140.501175 
L 112.419333 135.236678 
L 118.092041 130.370226 
L 123.764749 125.931824 
L 129.437457 121.948836 
L 135.110166 118.445817 
L 140.782874 115.444366 
L 146.455582 112.962987 
L 152.12829 111.016979 
L 157.800999 109.61834 
L 163.473707 108.775692 
L 169.146415 108.494231 
L 174.819123 108.775692 
L 180.491832 109.61834 
L 186.16454 111.016979 
L 191.837248 112.962987 
L 197.509956 115.444366 
L 203.182665 118.445817 
L 208.855373 121.948836 
L 214.528081 125.931824 
L 220.200789 130.370226 
L 225.873498 135.236678 
L 231.546206 140.501175 
L 237.218914 146.131261 
L 242.891622 152.092225 
L 248.564331 158.347314 
L 254.237039 164.857965 
L 259.909747 171.584037 
L 265.582456 178.484061 
L 271.255164 185.515497 
L 276.927872 192.634993 
L 282.60058 199.798656 
" clip-path="url(#p6a86d0c982)" style="fill: none; stroke: #d95f02; stroke-opacity: 0.08; stroke-width: 0.9; stroke-linecap: square"/>
   </g>
   <g id="line2d_8">
    <path d="M 55.69225 199.798656 
L 61.364958 187.784515 
L 67.037666 175.844445 
L 72.710375 164.05206 
L 78.383083 152.480066 
L 84.055791 141.199806 
L 89.728499 130.280828 
L 95.401208 119.79045 
L 101.073916 109.793349 
L 106.746624 100.351161 
L 112.419333 91.5221 
L 118.092041 83.3606 
L 123.764749 75.916979 
L 129.437457 69.23713 
L 135.110166 63.362236 
L 140.782874 58.328518 
L 146.455582 54.16701 
L 152.12829 50.90337 
L 157.800999 48.557719 
L 163.473707 47.144519 
L 169.146415 46.672482 
L 174.819123 47.144519 
L 180.491832 48.557719 
L 186.16454 50.90337 
L 191.837248 54.16701 
L 197.509956 58.328518 
L 203.182665 63.362236 
L 208.855373 69.23713 
L 214.528081 75.916979 
L 220.200789 83.3606 
L 225.873498 91.5221 
L 231.546206 100.351161 
L 237.218914 109.793349 
L 242.891622 119.79045 
L 248.564331 130.280828 
L 254.237039 141.199806 
L 259.909747 152.480066 
L 265.582456 164.05206 
L 271.255164 175.844445 
L 276.927872 187.784515 
L 282.60058 199.798656 
" clip-path="url(#p6a86d0c982)" style="fill: none; stroke: #d95f02; stroke-opacity: 0.08; stroke-width: 0.9; stroke-linecap: square"/>
   </g>
   <g id="line2d_9">
    <path d="M 55.69225 199.798656 
L 61.364958 195.23895 
L 67.037666 190.707356 
L 72.710375 186.231813 
L 78.383083 181.839914 
L 84.055791 177.558737 
L 89.728499 173.414676 
L 95.401208 169.433281 
L 101.073916 165.639099 
L 106.746624 162.055522 
L 112.419333 158.704644 
L 118.092041 155.607124 
L 123.764749 152.78206 
L 129.437457 150.246868 
L 135.110166 148.01718 
L 140.782874 146.106742 
L 146.455582 144.527332 
L 152.12829 143.288688 
L 157.800999 142.398448 
L 163.473707 141.862098 
L 169.146415 141.682947 
L 174.819123 141.862098 
L 180.491832 142.398448 
L 186.16454 143.288688 
L 191.837248 144.527332 
L 197.509956 146.106742 
L 203.182665 148.01718 
L 208.855373 150.246868 
L 214.528081 152.78206 
L 220.200789 155.607124 
L 225.873498 158.704644 
L 231.546206 162.055522 
L 237.218914 165.639099 
L 242.891622 169.433281 
L 248.564331 173.414676 
L 254.237039 177.558737 
L 259.909747 181.839914 
L 265.582456 186.231813 
L 271.255164 190.707356 
L 276.927872 195.23895 
L 282.60058 199.798656 
" clip-path="url(#p6a86d0c982)" style="fill: none; stroke: #d95f02; stroke-opacity: 0.08; stroke-width: 0.9; stroke-linecap: square"/>
   </g>
   <g id="line2d_10">
    <path d="M 55.69225 199.798656 
L 61.364958 193.245676 
L 67.037666 186.733097 
L 72.710375 180.301071 
L 78.383083 173.989255 
L 84.055791 167.836562 
L 89.728499 161.880926 
L 95.401208 156.159066 
L 101.073916 150.706258 
L 106.746624 145.556121 
L 112.419333 140.740408 
L 118.092041 136.288808 
L 123.764749 132.228767 
L 129.437457 128.585317 
L 135.110166 125.380922 
L 140.782874 122.635336 
L 146.455582 120.365488 
L 152.12829 118.585371 
L 157.800999 117.305962 
L 163.473707 116.535147 
L 169.146415 116.27768 
L 174.819123 116.535147 
L 180.491832 117.305962 
L 186.16454 118.585371 
L 191.837248 120.365488 
L 197.509956 122.635336 
L 203.182665 125.380922 
L 208.855373 128.585317 
L 214.528081 132.228767 
L 220.200789 136.288808 
L 225.873498 140.740408 
L 231.546206 145.556121 
L 237.218914 150.706258 
L 242.891622 156.159066 
L 248.564331 161.880926 
L 254.237039 167.836562 
L 259.909747 173.989255 
L 265.582456 180.301071 
L 271.255164 186.733097 
L 276.927872 193.245676 
L 282.60058 199.798656 
" clip-path="url(#p6a86d0c982)" style="fill: none; stroke: #d95f02; stroke-opacity: 0.08; stroke-width: 0.9; stroke-linecap: square"/>
   </g>
   <g id="line2d_11">
    <path d="M 55.69225 199.798656 
L 61.364958 194.300665 
L 67.037666 188.836571 
L 72.710375 183.440062 
L 78.383083 178.14441 
L 84.055791 172.982263 
L 89.728499 167.985448 
L 95.401208 163.184772 
L 101.073916 158.609832 
L 106.746624 154.288836 
L 112.419333 150.248422 
L 118.092041 146.513503 
L 123.764749 143.107104 
L 129.437457 140.050227 
L 135.110166 137.361719 
L 140.782874 135.058156 
L 146.455582 133.153739 
L 152.12829 131.660211 
L 157.800999 130.586778 
L 163.473707 129.94006 
L 169.146415 129.724044 
L 174.819123 129.94006 
L 180.491832 130.586778 
L 186.16454 131.660211 
L 191.837248 133.153739 
L 197.509956 135.058156 
L 203.182665 137.361719 
L 208.855373 140.050227 
L 214.528081 143.107104 
L 220.200789 146.513503 
L 225.873498 150.248422 
L 231.546206 154.288836 
L 237.218914 158.609832 
L 242.891622 163.184772 
L 248.564331 167.985448 
L 254.237039 172.982263 
L 259.909747 178.14441 
L 265.582456 183.440062 
L 271.255164 188.836571 
L 276.927872 194.300665 
L 282.60058 199.798656 
" clip-path="url(#p6a86d0c982)" style="fill: none; stroke: #d95f02; stroke-opacity: 0.08; stroke-width: 0.9; stroke-linecap: square"/>
   </g>
   <g id="line2d_12">
    <path d="M 55.69225 199.798656 
L 61.364958 189.450481 
L 67.037666 179.166107 
L 72.710375 169.008939 
L 78.383083 159.0416 
L 84.055791 149.325541 
L 89.728499 139.920667 
L 95.401208 130.884959 
L 101.073916 122.274128 
L 106.746624 114.141261 
L 112.419333 106.536501 
L 118.092041 99.506733 
L 123.764749 93.095298 
L 129.437457 87.341724 
L 135.110166 82.281485 
L 140.782874 77.945778 
L 146.455582 74.361335 
L 152.12829 71.550255 
L 157.800999 69.529868 
L 163.473707 68.312632 
L 169.146415 67.906052 
L 174.819123 68.312632 
L 180.491832 69.529868 
L 186.16454 71.550255 
L 191.837248 74.361335 
L 197.509956 77.945778 
L 203.182665 82.281485 
L 208.855373 87.341724 
L 214.528081 93.095298 
L 220.200789 99.506733 
L 225.873498 106.536501 
L 231.546206 114.141261 
L 237.218914 122.274128 
L 242.891622 130.884959 
L 248.564331 139.920667 
L 254.237039 149.325541 
L 259.909747 159.0416 
L 265.582456 169.008939 
L 271.255164 179.166107 
L 276.927872 189.450481 
L 282.60058 199.798656 
" clip-path="url(#p6a86d0c982)" style="fill: none; stroke: #d95f02; stroke-opacity: 0.08; stroke-width: 0.9; stroke-linecap: square"/>
   </g>
   <g id="line2d_13">
    <path d="M 55.69225 199.798656 
L 61.364958 194.069097 
L 67.037666 188.374862 
L 72.710375 182.751059 
L 78.383083 177.23236 
L 84.055791 171.852789 
L 89.728499 166.645514 
L 95.401208 161.64264 
L 101.073916 156.87501 
L 106.746624 152.372018 
L 112.419333 148.161428 
L 118.092041 144.269198 
L 123.764749 140.719325 
L 129.437457 137.533697 
L 135.110166 134.731952 
L 140.782874 132.331366 
L 146.455582 130.346737 
L 152.12829 128.790303 
L 157.800999 127.671659 
L 163.473707 126.997702 
L 169.146415 126.772587 
L 174.819123 126.997702 
L 180.491832 127.671659 
L 186.16454 128.790303 
L 191.837248 130.346737 
L 197.509956 132.331366 
L 203.182665 134.731952 
L 208.855373 137.533697 
L 214.528081 140.719325 
L 220.200789 144.269198 
L 225.873498 148.161428 
L 231.546206 152.372018 
L 237.218914 156.87501 
L 242.891622 161.64264 
L 248.564331 166.645514 
L 254.237039 171.852789 
L 259.909747 177.23236 
L 265.582456 182.751059 
L 271.255164 188.374862 
L 276.927872 194.069097 
L 282.60058 199.798656 
" clip-path="url(#p6a86d0c982)" style="fill: none; stroke: #d95f02; stroke-opacity: 0.08; stroke-width: 0.9; stroke-linecap: square"/>
   </g>
   <g id="line2d_14">
    <path d="M 55.69225 199.798656 
L 61.364958 190.568564 
L 67.037666 181.395379 
L 72.710375 172.335657 
L 78.383083 163.445253 
L 84.055791 154.778979 
L 89.728499 146.390267 
L 95.401208 138.330836 
L 101.073916 130.650374 
L 106.746624 123.396234 
L 112.419333 116.613141 
L 118.092041 110.342914 
L 123.764749 104.624211 
L 129.437457 99.49229 
L 135.110166 94.978792 
L 140.782874 91.111543 
L 146.455582 87.914386 
L 152.12829 85.407032 
L 157.800999 83.604941 
L 163.473707 82.519223 
L 169.146415 82.156572 
L 174.819123 82.519223 
L 180.491832 83.604941 
L 186.16454 85.407032 
L 191.837248 87.914386 
L 197.509956 91.111543 
L 203.182665 94.978792 
L 208.855373 99.49229 
L 214.528081 104.624211 
L 220.200789 110.342914 
L 225.873498 116.613141 
L 231.546206 123.396234 
L 237.218914 130.650374 
L 242.891622 138.330836 
L 248.564331 146.390267 
L 254.237039 154.778979 
L 259.909747 163.445253 
L 265.582456 172.335657 
L 271.255164 181.395379 
L 276.927872 190.568564 
L 282.60058 199.798656 
" clip-path="url(#p6a86d0c982)" style="fill: none; stroke: #d95f02; stroke-opacity: 0.08; stroke-width: 0.9; stroke-linecap: square"/>
   </g>
   <g id="line2d_15">
    <path d="M 55.69225 199.798656 
L 61.364958 190.382982 
L 67.037666 181.025358 
L 72.710375 171.783479 
L 78.383083 162.714322 
L 84.055791 153.873802 
L 89.728499 145.316424 
L 95.401208 137.094948 
L 101.073916 129.260061 
L 106.746624 121.860067 
L 112.419333 114.940591 
L 118.092041 108.544293 
L 123.764749 102.710609 
L 129.437457 97.475504 
L 135.110166 92.871256 
L 140.782874 88.926251 
L 146.455582 85.664811 
L 152.12829 83.107044 
L 157.800999 81.26872 
L 163.473707 80.161173 
L 169.146415 79.79123 
L 174.819123 80.161173 
L 180.491832 81.26872 
L 186.16454 83.107044 
L 191.837248 85.664811 
L 197.509956 88.926251 
L 203.182665 92.871256 
L 208.855373 97.475504 
L 214.528081 102.710609 
L 220.200789 108.544293 
L 225.873498 114.940591 
L 231.546206 121.860067 
L 237.218914 129.260061 
L 242.891622 137.094948 
L 248.564331 145.316424 
L 254.237039 153.873802 
L 259.909747 162.714322 
L 265.582456 171.783479 
L 271.255164 181.025358 
L 276.927872 190.382982 
L 282.60058 199.798656 
" clip-path="url(#p6a86d0c982)" style="fill: none; stroke: #d95f02; stroke-opacity: 0.08; stroke-width: 0.9; stroke-linecap: square"/>
   </g>
   <g id="line2d_16">
    <path d="M 55.69225 199.798656 
L 61.364958 193.700378 
L 67.037666 187.639699 
L 72.710375 181.653983 
L 78.383083 175.780136 
L 84.055791 170.05437 
L 89.728499 164.511988 
L 95.401208 159.18716 
L 101.073916 154.112716 
L 106.746624 149.31994 
L 112.419333 144.838383 
L 118.092041 140.695674 
L 123.764749 136.917354 
L 129.437457 133.526719 
L 135.110166 130.544672 
L 140.782874 127.989599 
L 146.455582 125.877252 
L 152.12829 124.220656 
L 157.800999 123.030023 
L 163.473707 122.312694 
L 169.146415 122.073092 
L 174.819123 122.312694 
L 180.491832 123.030023 
L 186.16454 124.220656 
L 191.837248 125.877252 
L 197.509956 127.989599 
L 203.182665 130.544672 
L 208.855373 133.526719 
L 214.528081 136.917354 
L 220.200789 140.695674 
L 225.873498 144.838383 
L 231.546206 149.31994 
L 237.218914 154.112716 
L 242.891622 159.18716 
L 248.564331 164.511988 
L 254.237039 170.05437 
L 259.909747 175.780136 
L 265.582456 181.653983 
L 271.255164 187.639699 
L 276.927872 193.700378 
L 282.60058 199.798656 
" clip-path="url(#p6a86d0c982)" style="fill: none; stroke: #d95f02; stroke-opacity: 0.08; stroke-width: 0.9; stroke-linecap: square"/>
   </g>
   <g id="line2d_17">
    <path d="M 55.69225 199.798656 
L 61.364958 192.933347 
L 67.037666 186.110366 
L 72.710375 179.371777 
L 78.383083 172.759127 
L 84.055791 166.313185 
L 89.728499 160.073691 
L 95.401208 154.079115 
L 101.073916 148.366416 
L 106.746624 142.970813 
L 112.419333 137.925573 
L 118.092041 133.261801 
L 123.764749 129.008251 
L 129.437457 125.191147 
L 135.110166 121.834023 
L 140.782874 118.957577 
L 146.455582 116.579543 
L 152.12829 114.714583 
L 157.800999 113.374195 
L 163.473707 112.566642 
L 169.146415 112.296903 
L 174.819123 112.566642 
L 180.491832 113.374195 
L 186.16454 114.714583 
L 191.837248 116.579543 
L 197.509956 118.957577 
L 203.182665 121.834023 
L 208.855373 125.191147 
L 214.528081 129.008251 
L 220.200789 133.261801 
L 225.873498 137.925573 
L 231.546206 142.970813 
L 237.218914 148.366416 
L 242.891622 154.079115 
L 248.564331 160.073691 
L 254.237039 166.313185 
L 259.909747 172.759127 
L 265.582456 179.371777 
L 271.255164 186.110366 
L 276.927872 192.933347 
L 282.60058 199.798656 
" clip-path="url(#p6a86d0c982)" style="fill: none; stroke: #d95f02; stroke-opacity: 0.08; stroke-width: 0.9; stroke-linecap: square"/>
   </g>
   <g id="line2d_18">
    <path d="M 55.69225 199.798656 
L 61.364958 194.88888 
L 67.037666 190.009375 
L 72.710375 185.190223 
L 78.383083 180.461138 
L 84.055791 175.851275 
L 89.728499 171.389055 
L 95.401208 167.101991 
L 101.073916 163.016511 
L 106.746624 159.157806 
L 112.419333 155.549666 
L 118.092041 152.214335 
L 123.764749 149.172377 
L 129.437457 146.442547 
L 135.110166 144.041676 
L 140.782874 141.984564 
L 146.455582 140.283896 
L 152.12829 138.950156 
L 157.800999 137.991567 
L 163.473707 137.41404 
L 169.146415 137.221134 
L 174.819123 137.41404 
L 180.491832 137.991567 
L 186.16454 138.950156 
L 191.837248 140.283896 
L 197.509956 141.984564 
L 203.182665 144.041676 
L 208.855373 146.442547 
L 214.528081 149.172377 
L 220.200789 152.214335 
L 225.873498 155.549666 
L 231.546206 159.157806 
L 237.218914 163.016511 
L 242.891622 167.101991 
L 248.564331 171.389055 
L 254.237039 175.851275 
L 259.909747 180.461138 
L 265.582456 185.190223 
L 271.255164 190.009375 
L 276.927872 194.88888 
L 282.60058 199.798656 
" clip-path="url(#p6a86d0c982)" style="fill: none; stroke: #d95f02; stroke-opacity: 0.08; stroke-width: 0.9; stroke-linecap: square"/>
   </g>
   <g id="line2d_19">
    <path d="M 55.69225 199.798656 
L 61.364958 195.033494 
L 67.037666 190.297711 
L 72.710375 185.620504 
L 78.383083 181.030711 
L 84.055791 176.556628 
L 89.728499 172.225839 
L 95.401208 168.065047 
L 101.073916 164.099903 
L 106.746624 160.354853 
L 112.419333 156.852987 
L 118.092041 153.615896 
L 123.764749 150.663537 
L 129.437457 148.014113 
L 135.110166 145.683957 
L 140.782874 143.687436 
L 146.455582 142.03686 
L 152.12829 140.742404 
L 157.800999 139.81205 
L 163.473707 139.251533 
L 169.146415 139.064309 
L 174.819123 139.251533 
L 180.491832 139.81205 
L 186.16454 140.742404 
L 191.837248 142.03686 
L 197.509956 143.687436 
L 203.182665 145.683957 
L 208.855373 148.014113 
L 214.528081 150.663537 
L 220.200789 153.615896 
L 225.873498 156.852987 
L 231.546206 160.354853 
L 237.218914 164.099903 
L 242.891622 168.065047 
L 248.564331 172.225839 
L 254.237039 176.556628 
L 259.909747 181.030711 
L 265.582456 185.620504 
L 271.255164 190.297711 
L 276.927872 195.033494 
L 282.60058 199.798656 
" clip-path="url(#p6a86d0c982)" style="fill: none; stroke: #d95f02; stroke-opacity: 0.08; stroke-width: 0.9; stroke-linecap: square"/>
   </g>
   <g id="line2d_20">
    <path d="M 55.69225 199.798656 
L 61.364958 192.825124 
L 67.037666 185.894587 
L 72.710375 179.049772 
L 78.383083 172.332882 
L 84.055791 165.785327 
L 89.728499 159.447476 
L 95.401208 153.358403 
L 101.073916 147.555649 
L 106.746624 142.074992 
L 112.419333 136.950219 
L 118.092041 132.212929 
L 123.764749 127.892326 
L 129.437457 124.01505 
L 135.110166 120.605006 
L 140.782874 117.683216 
L 146.455582 115.267696 
L 152.12829 113.373337 
L 157.800999 112.011818 
L 163.473707 111.191535 
L 169.146415 110.917544 
L 174.819123 111.191535 
L 180.491832 112.011818 
L 186.16454 113.373337 
L 191.837248 115.267696 
L 197.509956 117.683216 
L 203.182665 120.605006 
L 208.855373 124.01505 
L 214.528081 127.892326 
L 220.200789 132.212929 
L 225.873498 136.950219 
L 231.546206 142.074992 
L 237.218914 147.555649 
L 242.891622 153.358403 
L 248.564331 159.447476 
L 254.237039 165.785327 
L 259.909747 172.332882 
L 265.582456 179.049772 
L 271.255164 185.894587 
L 276.927872 192.825124 
L 282.60058 199.798656 
" clip-path="url(#p6a86d0c982)" style="fill: none; stroke: #d95f02; stroke-opacity: 0.08; stroke-width: 0.9; stroke-linecap: square"/>
   </g>
   <g id="matplotlib.axis_1">
    <g id="xtick_1">
     <g id="line2d_21">
      <defs>
       <path id="mb627d6c171" d="M 0 0 
L 0 3.5 
" style="stroke: #000000; stroke-width: 0.8"/>
      </defs>
      <g>
       <use xlink:href="#mb627d6c171" x="55.69225" y="201.398125" style="stroke: #000000; stroke-width: 0.8"/>
      </g>
     </g>
     <g id="text_1">
      <text style="font-size: 9px; font-family: 'DejaVu Sans', 'Bitstream Vera Sans', 'Computer Modern Sans Serif', 'Lucida Grande', 'Verdana', 'Geneva', 'Lucid', 'Arial', 'Helvetica', 'Avant Garde', sans-serif; text-anchor: middle" x="55.69225" y="215.236719" transform="rotate(-0 55.69225 215.236719)">0.0</text>
     </g>
    </g>
    <g id="xtick_2">
     <g id="line2d_22">
      <g>
       <use xlink:href="#mb627d6c171" x="101.073916" y="201.398125" style="stroke: #000000; stroke-width: 0.8"/>
      </g>
     </g>
     <g id="text_2">
      <text style="font-size: 9px; font-family: 'DejaVu Sans', 'Bitstream Vera Sans', 'Computer Modern Sans Serif', 'Lucida Grande', 'Verdana', 'Geneva', 'Lucid', 'Arial', 'Helvetica', 'Avant Garde', sans-serif; text-anchor: middle" x="101.073916" y="215.236719" transform="rotate(-0 101.073916 215.236719)">0.2</text>
     </g>
    </g>
    <g id="xtick_3">
     <g id="line2d_23">
      <g>
       <use xlink:href="#mb627d6c171" x="146.455582" y="201.398125" style="stroke: #000000; stroke-width: 0.8"/>
      </g>
     </g>
     <g id="text_3">
      <text style="font-size: 9px; font-family: 'DejaVu Sans', 'Bitstream Vera Sans', 'Computer Modern Sans Serif', 'Lucida Grande', 'Verdana', 'Geneva', 'Lucid', 'Arial', 'Helvetica', 'Avant Garde', sans-serif; text-anchor: middle" x="146.455582" y="215.236719" transform="rotate(-0 146.455582 215.236719)">0.4</text>
     </g>
    </g>
    <g id="xtick_4">
     <g id="line2d_24">
      <g>
       <use xlink:href="#mb627d6c171" x="191.837248" y="201.398125" style="stroke: #000000; stroke-width: 0.8"/>
      </g>
     </g>
     <g id="text_4">
      <text style="font-size: 9px; font-family: 'DejaVu Sans', 'Bitstream Vera Sans', 'Computer Modern Sans Serif', 'Lucida Grande', 'Verdana', 'Geneva', 'Lucid', 'Arial', 'Helvetica', 'Avant Garde', sans-serif; text-anchor: middle" x="191.837248" y="215.236719" transform="rotate(-0 191.837248 215.236719)">0.6</text>
     </g>
    </g>
    <g id="xtick_5">
     <g id="line2d_25">
      <g>
       <use xlink:href="#mb627d6c171" x="237.218914" y="201.398125" style="stroke: #000000; stroke-width: 0.8"/>
      </g>
     </g>
     <g id="text_5">
      <text style="font-size: 9px; font-family: 'DejaVu Sans', 'Bitstream Vera Sans', 'Computer Modern Sans Serif', 'Lucida Grande', 'Verdana', 'Geneva', 'Lucid', 'Arial', 'Helvetica', 'Avant Garde', sans-serif; text-anchor: middle" x="237.218914" y="215.236719" transform="rotate(-0 237.218914 215.236719)">0.8</text>
     </g>
    </g>
    <g id="xtick_6">
     <g id="line2d_26">
      <g>
       <use xlink:href="#mb627d6c171" x="282.60058" y="201.398125" style="stroke: #000000; stroke-width: 0.8"/>
      </g>
     </g>
     <g id="text_6">
      <text style="font-size: 9px; font-family: 'DejaVu Sans', 'Bitstream Vera Sans', 'Computer Modern Sans Serif', 'Lucida Grande', 'Verdana', 'Geneva', 'Lucid', 'Arial', 'Helvetica', 'Avant Garde', sans-serif; text-anchor: middle" x="282.60058" y="215.236719" transform="rotate(-0 282.60058 215.236719)">1.0</text>
     </g>
    </g>
    <g id="text_7">
     <text style="font-size: 11px; font-family: 'DejaVu Sans', 'Bitstream Vera Sans', 'Computer Modern Sans Serif', 'Lucida Grande', 'Verdana', 'Geneva', 'Lucid', 'Arial', 'Helvetica', 'Avant Garde', sans-serif; text-anchor: middle" x="169.146415" y="229.466719" transform="rotate(-0 169.146415 229.466719)">normalized path time</text>
    </g>
   </g>
   <g id="matplotlib.axis_2">
    <g id="ytick_1">
     <g id="line2d_27">
      <defs>
       <path id="m318308b833" d="M 0 0 
L -3.5 0 
" style="stroke: #000000; stroke-width: 0.8"/>
      </defs>
      <g>
       <use xlink:href="#m318308b833" x="48.885" y="199.798656" style="stroke: #000000; stroke-width: 0.8"/>
      </g>
     </g>
     <g id="text_8">
      <text style="font-size: 9px; font-family: 'DejaVu Sans', 'Bitstream Vera Sans', 'Computer Modern Sans Serif', 'Lucida Grande', 'Verdana', 'Geneva', 'Lucid', 'Arial', 'Helvetica', 'Avant Garde', sans-serif; text-anchor: end" x="41.885" y="203.217953" transform="rotate(-0 41.885 203.217953)">0.0</text>
     </g>
    </g>
    <g id="ytick_2">
     <g id="line2d_28">
      <g>
       <use xlink:href="#m318308b833" x="48.885" y="177.583806" style="stroke: #000000; stroke-width: 0.8"/>
      </g>
     </g>
     <g id="text_9">
      <text style="font-size: 9px; font-family: 'DejaVu Sans', 'Bitstream Vera Sans', 'Computer Modern Sans Serif', 'Lucida Grande', 'Verdana', 'Geneva', 'Lucid', 'Arial', 'Helvetica', 'Avant Garde', sans-serif; text-anchor: end" x="41.885" y="181.003103" transform="rotate(-0 41.885 181.003103)">2.5</text>
     </g>
    </g>
    <g id="ytick_3">
     <g id="line2d_29">
      <g>
       <use xlink:href="#m318308b833" x="48.885" y="155.368957" style="stroke: #000000; stroke-width: 0.8"/>
      </g>
     </g>
     <g id="text_10">
      <text style="font-size: 9px; font-family: 'DejaVu Sans', 'Bitstream Vera Sans', 'Computer Modern Sans Serif', 'Lucida Grande', 'Verdana', 'Geneva', 'Lucid', 'Arial', 'Helvetica', 'Avant Garde', sans-serif; text-anchor: end" x="41.885" y="158.788254" transform="rotate(-0 41.885 158.788254)">5.0</text>
     </g>
    </g>
    <g id="ytick_4">
     <g id="line2d_30">
      <g>
       <use xlink:href="#m318308b833" x="48.885" y="133.154107" style="stroke: #000000; stroke-width: 0.8"/>
      </g>
     </g>
     <g id="text_11">
      <text style="font-size: 9px; font-family: 'DejaVu Sans', 'Bitstream Vera Sans', 'Computer Modern Sans Serif', 'Lucida Grande', 'Verdana', 'Geneva', 'Lucid', 'Arial', 'Helvetica', 'Avant Garde', sans-serif; text-anchor: end" x="41.885" y="136.573404" transform="rotate(-0 41.885 136.573404)">7.5</text>
     </g>
    </g>
    <g id="ytick_5">
     <g id="line2d_31">
      <g>
       <use xlink:href="#m318308b833" x="48.885" y="110.939257" style="stroke: #000000; stroke-width: 0.8"/>
      </g>
     </g>
     <g id="text_12">
      <text style="font-size: 9px; font-family: 'DejaVu Sans', 'Bitstream Vera Sans', 'Computer Modern Sans Serif', 'Lucida Grande', 'Verdana', 'Geneva', 'Lucid', 'Arial', 'Helvetica', 'Avant Garde', sans-serif; text-anchor: end" x="41.885" y="114.358554" transform="rotate(-0 41.885 114.358554)">10.0</text>
     </g>
    </g>
    <g id="ytick_6">
     <g id="line2d_32">
      <g>
       <use xlink:href="#m318308b833" x="48.885" y="88.724408" style="stroke: #000000; stroke-width: 0.8"/>
      </g>
     </g>
     <g id="text_13">
      <text style="font-size: 9px; font-family: 'DejaVu Sans', 'Bitstream Vera Sans', 'Computer Modern Sans Serif', 'Lucida Grande', 'Verdana', 'Geneva', 'Lucid', 'Arial', 'Helvetica', 'Avant Garde', sans-serif; text-anchor: end" x="41.885" y="92.143705" transform="rotate(-0 41.885 92.143705)">12.5</text>
     </g>
    </g>
    <g id="ytick_7">
     <g id="line2d_33">
      <g>
       <use xlink:href="#m318308b833" x="48.885" y="66.509558" style="stroke: #000000; stroke-width: 0.8"/>
      </g>
     </g>
     <g id="text_14">
      <text style="font-size: 9px; font-family: 'DejaVu Sans', 'Bitstream Vera Sans', 'Computer Modern Sans Serif', 'Lucida Grande', 'Verdana', 'Geneva', 'Lucid', 'Arial', 'Helvetica', 'Avant Garde', sans-serif; text-anchor: end" x="41.885" y="69.928855" transform="rotate(-0 41.885 69.928855)">15.0</text>
     </g>
    </g>
    <g id="ytick_8">
     <g id="line2d_34">
      <g>
       <use xlink:href="#m318308b833" x="48.885" y="44.294709" style="stroke: #000000; stroke-width: 0.8"/>
      </g>
     </g>
     <g id="text_15">
      <text style="font-size: 9px; font-family: 'DejaVu Sans', 'Bitstream Vera Sans', 'Computer Modern Sans Serif', 'Lucida Grande', 'Verdana', 'Geneva', 'Lucid', 'Arial', 'Helvetica', 'Avant Garde', sans-serif; text-anchor: end" x="41.885" y="47.714006" transform="rotate(-0 41.885 47.714006)">17.5</text>
     </g>
    </g>
    <g id="text_16">
     <text style="font-size: 11px; font-family: 'DejaVu Sans', 'Bitstream Vera Sans', 'Computer Modern Sans Serif', 'Lucida Grande', 'Verdana', 'Geneva', 'Lucid', 'Arial', 'Helvetica', 'Avant Garde', sans-serif; text-anchor: middle" x="15.558281" y="112.358125" transform="rotate(-90 15.558281 112.358125)">detour displacement (PC-20)</text>
    </g>
   </g>
   <g id="patch_3">
    <path d="M 48.885 201.398125 
L 48.885 23.318125 
" style="fill: none; stroke: #000000; stroke-width: 0.8; stroke-linejoin: miter; stroke-linecap: square"/>
   </g>
   <g id="patch_4">
    <path d="M 48.885 201.398125 
L 289.40783 201.398125 
" style="fill: none; stroke: #000000; stroke-width: 0.8; stroke-linejoin: miter; stroke-linecap: square"/>
   </g>
   <g id="line2d_35">
    <path d="M 55.69225 199.798656 
L 61.364958 197.154153 
L 67.037666 194.525955 
L 72.710375 191.930265 
L 78.383083 189.383086 
L 84.055791 186.900122 
L 89.728499 184.496682 
L 95.401208 182.187584 
L 101.073916 179.987064 
L 106.746624 177.908689 
L 112.419333 175.965273 
L 118.092041 174.168798 
L 123.764749 172.530339 
L 129.437457 171.059999 
L 135.110166 169.766842 
L 140.782874 168.658841 
L 146.455582 167.742827 
L 152.12829 167.024448 
L 157.800999 166.508133 
L 163.473707 166.197066 
L 169.146415 166.093163 
L 174.819123 166.197066 
L 180.491832 166.508133 
L 186.16454 167.024448 
L 191.837248 167.742827 
L 197.509956 168.658841 
L 203.182665 169.766842 
L 208.855373 171.059999 
L 214.528081 172.530339 
L 220.200789 174.168798 
L 225.873498 175.965273 
L 231.546206 177.908689 
L 237.218914 179.987064 
L 242.891622 182.187584 
L 248.564331 184.496682 
L 254.237039 186.900122 
L 259.909747 189.383086 
L 265.582456 191.930265 
L 271.255164 194.525955 
L 276.927872 197.154153 
L 282.60058 199.798656 
" clip-path="url(#p6a86d0c982)" style="fill: none; stroke: #d95f02; stroke-opacity: 0.85; stroke-width: 1.45; stroke-linecap: square"/>
   </g>
   <g id="line2d_36">
    <path d="M 55.69225 199.798656 
L 61.364958 194.88888 
L 67.037666 190.009375 
L 72.710375 185.190223 
L 78.383083 180.461138 
L 84.055791 175.851275 
L 89.728499 171.389055 
L 95.401208 167.101991 
L 101.073916 163.016511 
L 106.746624 159.157806 
L 112.419333 155.549666 
L 118.092041 152.214335 
L 123.764749 149.172377 
L 129.437457 146.442547 
L 135.110166 144.041676 
L 140.782874 141.984564 
L 146.455582 140.283896 
L 152.12829 138.950156 
L 157.800999 137.991567 
L 163.473707 137.41404 
L 169.146415 137.221134 
L 174.819123 137.41404 
L 180.491832 137.991567 
L 186.16454 138.950156 
L 191.837248 140.283896 
L 197.509956 141.984564 
L 203.182665 144.041676 
L 208.855373 146.442547 
L 214.528081 149.172377 
L 220.200789 152.214335 
L 225.873498 155.549666 
L 231.546206 159.157806 
L 237.218914 163.016511 
L 242.891622 167.101991 
L 248.564331 171.389055 
L 254.237039 175.851275 
L 259.909747 180.461138 
L 265.582456 185.190223 
L 271.255164 190.009375 
L 276.927872 194.88888 
L 282.60058 199.798656 
" clip-path="url(#p6a86d0c982)" style="fill: none; stroke: #d95f02; stroke-opacity: 0.85; stroke-width: 1.45; stroke-linecap: square"/>
   </g>
   <g id="line2d_37">
    <path d="M 55.69225 199.798656 
L 61.364958 193.123841 
L 67.037666 186.490179 
L 72.710375 179.938568 
L 78.383083 173.5094 
L 84.055791 167.242315 
L 89.728499 161.175951 
L 95.401208 155.347708 
L 101.073916 149.79352 
L 106.746624 144.547631 
L 112.419333 139.642383 
L 118.092041 135.108017 
L 123.764749 130.972492 
L 129.437457 127.261302 
L 135.110166 123.997329 
L 140.782874 121.200697 
L 146.455582 118.888647 
L 152.12829 117.075435 
L 157.800999 115.772238 
L 163.473707 114.987092 
L 169.146415 114.724838 
L 174.819123 114.987092 
L 180.491832 115.772238 
L 186.16454 117.075435 
L 191.837248 118.888647 
L 197.509956 121.200697 
L 203.182665 123.997329 
L 208.855373 127.261302 
L 214.528081 130.972492 
L 220.200789 135.108017 
L 225.873498 139.642383 
L 231.546206 144.547631 
L 237.218914 149.79352 
L 242.891622 155.347708 
L 248.564331 161.175951 
L 254.237039 167.242315 
L 259.909747 173.5094 
L 265.582456 179.938568 
L 271.255164 186.490179 
L 276.927872 193.123841 
L 282.60058 199.798656 
" clip-path="url(#p6a86d0c982)" style="fill: none; stroke: #d95f02; stroke-opacity: 0.85; stroke-width: 1.45; stroke-linecap: square"/>
   </g>
   <g id="line2d_38">
    <path d="M 55.69225 199.798656 
L 61.364958 192.100205 
L 67.037666 184.449217 
L 72.710375 176.892864 
L 78.383083 169.477733 
L 84.055791 162.24954 
L 89.728499 155.25285 
L 95.401208 148.5308 
L 101.073916 142.124833 
L 106.746624 136.074444 
L 112.419333 130.416937 
L 118.092041 125.18719 
L 123.764749 120.417448 
L 129.437457 116.137118 
L 135.110166 112.372589 
L 140.782874 109.147071 
L 146.455582 106.48045 
L 152.12829 104.389167 
L 157.800999 102.886114 
L 163.473707 101.98056 
L 169.146415 101.678087 
L 174.819123 101.98056 
L 180.491832 102.886114 
L 186.16454 104.389167 
L 191.837248 106.48045 
L 197.509956 109.147071 
L 203.182665 112.372589 
L 208.855373 116.137118 
L 214.528081 120.417448 
L 220.200789 125.18719 
L 225.873498 130.416937 
L 231.546206 136.074444 
L 237.218914 142.124833 
L 242.891622 148.5308 
L 248.564331 155.25285 
L 254.237039 162.24954 
L 259.909747 169.477733 
L 265.582456 176.892864 
L 271.255164 184.449217 
L 276.927872 192.100205 
L 282.60058 199.798656 
" clip-path="url(#p6a86d0c982)" style="fill: none; stroke: #d95f02; stroke-opacity: 0.85; stroke-width: 1.45; stroke-linecap: square"/>
   </g>
   <g id="line2d_39">
    <path d="M 55.69225 199.798656 
L 61.364958 187.210926 
L 67.037666 174.700804 
L 72.710375 162.345418 
L 78.383083 150.220944 
L 84.055791 138.402133 
L 89.728499 126.961852 
L 95.401208 115.970634 
L 101.073916 105.496244 
L 106.746624 95.603259 
L 112.419333 86.352674 
L 118.092041 77.801521 
L 123.764749 70.002521 
L 129.437457 63.003757 
L 135.110166 56.848379 
L 140.782874 51.574337 
L 146.455582 47.214148 
L 152.12829 43.794692 
L 157.800999 41.337053 
L 163.473707 39.856383 
L 169.146415 39.36181 
L 174.819123 39.856383 
L 180.491832 41.337053 
L 186.16454 43.794692 
L 191.837248 47.214148 
L 197.509956 51.574337 
L 203.182665 56.848379 
L 208.855373 63.003757 
L 214.528081 70.002521 
L 220.200789 77.801521 
L 225.873498 86.352674 
L 231.546206 95.603259 
L 237.218914 105.496244 
L 242.891622 115.970634 
L 248.564331 126.961852 
L 254.237039 138.402133 
L 259.909747 150.220944 
L 265.582456 162.345418 
L 271.255164 174.700804 
L 276.927872 187.210926 
L 282.60058 199.798656 
" clip-path="url(#p6a86d0c982)" style="fill: none; stroke: #d95f02; stroke-opacity: 0.85; stroke-width: 1.45; stroke-linecap: square"/>
   </g>
   <g id="text_17">
    <text style="font-size: 9px; font-family: 'DejaVu Sans', 'Bitstream Vera Sans', 'Computer Modern Sans Serif', 'Lucida Grande', 'Verdana', 'Geneva', 'Lucid', 'Arial', 'Helvetica', 'Avant Garde', sans-serif; text-anchor: start; fill: #1f77b4" x="73.844916" y="188.5967" transform="rotate(-0 73.844916 188.5967)">straight</text>
   </g>
   <g id="text_18">
    <text style="font-size: 9px; font-family: 'DejaVu Sans', 'Bitstream Vera Sans', 'Computer Modern Sans Serif', 'Lucida Grande', 'Verdana', 'Geneva', 'Lucid', 'Arial', 'Helvetica', 'Avant Garde', sans-serif; text-anchor: middle; fill: #d95f02" x="182.760915" y="75.994934" transform="rotate(-0 182.760915 75.994934)">detour</text>
   </g>
   <g id="patch_5">
    <path d="M 66.765803 195.711124 
Q 169.146504 195.711124 271.527206 195.711124 
" style="fill: none; opacity: 0.65; stroke: #6b7280; stroke-width: 0.75; stroke-linecap: round"/>
    <path d="M 66.765803 186.711124 
L 66.765803 186.711124 
L 66.765803 204.711124 
L 66.765803 204.711124 
" style="fill: none; opacity: 0.65; stroke: #6b7280; stroke-width: 0.75; stroke-linecap: round"/>
    <path d="M 271.527206 204.711124 
L 271.527206 204.711124 
L 271.527206 186.711124 
L 271.527206 186.711124 
" style="fill: none; opacity: 0.65; stroke: #6b7280; stroke-width: 0.75; stroke-linecap: round"/>
   </g>
   <g id="text_19">
    <text style="font-size: 8.3px; font-family: 'DejaVu Sans', 'Bitstream Vera Sans', 'Computer Modern Sans Serif', 'Lucida Grande', 'Verdana', 'Geneva', 'Lucid', 'Arial', 'Helvetica', 'Avant Garde', sans-serif; text-anchor: middle; fill: #6b7280" x="169.146415" y="192.385514" transform="rotate(-0 169.146415 192.385514)">endpoints fixed</text>
   </g>
   <g id="text_20">
    <text style="font-size: 12px; font-family: 'DejaVu Sans', 'Bitstream Vera Sans', 'Computer Modern Sans Serif', 'Lucida Grande', 'Verdana', 'Geneva', 'Lucid', 'Arial', 'Helvetica', 'Avant Garde', sans-serif; text-anchor: middle" x="169.146415" y="16.318125" transform="rotate(-0 169.146415 16.318125)">Path construction with fixed endpoints</text>
   </g>
   <g id="line2d_40">
    <path d="M 55.69225 199.798656 
L 61.364958 199.798656 
L 67.037666 199.798656 
L 72.710375 199.798656 
L 78.383083 199.798656 
L 84.055791 199.798656 
L 89.728499 199.798656 
L 95.401208 199.798656 
L 101.073916 199.798656 
L 106.746624 199.798656 
L 112.419333 199.798656 
L 118.092041 199.798656 
L 123.764749 199.798656 
L 129.437457 199.798656 
L 135.110166 199.798656 
L 140.782874 199.798656 
L 146.455582 199.798656 
L 152.12829 199.798656 
L 157.800999 199.798656 
L 163.473707 199.798656 
L 169.146415 199.798656 
L 174.819123 199.798656 
L 180.491832 199.798656 
L 186.16454 199.798656 
L 191.837248 199.798656 
L 197.509956 199.798656 
L 203.182665 199.798656 
L 208.855373 199.798656 
L 214.528081 199.798656 
L 220.200789 199.798656 
L 225.873498 199.798656 
L 231.546206 199.798656 
L 237.218914 199.798656 
L 242.891622 199.798656 
L 248.564331 199.798656 
L 254.237039 199.798656 
L 259.909747 199.798656 
L 265.582456 199.798656 
L 271.255164 199.798656 
L 276.927872 199.798656 
L 282.60058 199.798656 
" clip-path="url(#p6a86d0c982)" style="fill: none; stroke: #1f77b4; stroke-width: 2.4; stroke-linecap: square"/>
   </g>
   <g id="PathCollection_1">
    <defs>
     <path id="me6d01053c2" d="M 0 3.082207 
C 0.817411 3.082207 1.601453 2.757446 2.179449 2.179449 
C 2.757446 1.601453 3.082207 0.817411 3.082207 0 
C 3.082207 -0.817411 2.757446 -1.601453 2.179449 -2.179449 
C 1.601453 -2.757446 0.817411 -3.082207 0 -3.082207 
C -0.817411 -3.082207 -1.601453 -2.757446 -2.179449 -2.179449 
C -2.757446 -1.601453 -3.082207 -0.817411 -3.082207 0 
C -3.082207 0.817411 -2.757446 1.601453 -2.179449 2.179449 
C -1.601453 2.757446 -0.817411 3.082207 0 3.082207 
z
"/>
    </defs>
    <g clip-path="url(#p6a86d0c982)">
     <use xlink:href="#me6d01053c2" x="55.69225" y="199.798656" style="fill: #1f77b4"/>
    </g>
   </g>
   <g id="PathCollection_2">
    <defs>
     <path id="m81464b7e17" d="M 0 3.082207 
C 0.817411 3.082207 1.601453 2.757446 2.179449 2.179449 
C 2.757446 1.601453 3.082207 0.817411 3.082207 0 
C 3.082207 -0.817411 2.757446 -1.601453 2.179449 -2.179449 
C 1.601453 -2.757446 0.817411 -3.082207 0 -3.082207 
C -0.817411 -3.082207 -1.601453 -2.757446 -2.179449 -2.179449 
C -2.757446 -1.601453 -3.082207 -0.817411 -3.082207 0 
C -3.082207 0.817411 -2.757446 1.601453 -2.179449 2.179449 
C -1.601453 2.757446 -0.817411 3.082207 0 3.082207 
z
"/>
    </defs>
    <g clip-path="url(#p6a86d0c982)">
     <use xlink:href="#m81464b7e17" x="282.60058" y="199.798656" style="fill: #d95f02"/>
    </g>
   </g>
  </g>
 </g>
 <defs>
  <clipPath id="p6a86d0c982">
   <rect x="48.885" y="23.318125" width="240.52283" height="178.08"/>
  </clipPath>
 </defs>
</svg>
