<?xml version="1.0" encoding="utf-8" standalone="no"?>
<!DOCTYPE svg PUBLIC "-//W3C//DTD SVG 1.1//EN"
  "http://www.w3.org/Graphics/SVG/1.1/DTD/svg11.dtd">
<svg xmlns:xlink="http://www.w3.org/1999/xlink" width="347.76pt" height="268.478437pt" viewBox="0 0 347.76 268.478437" xmlns="http://www.w3.org/2000/svg" version="1.1">
 <metadata>
  <rdf:RDF xmlns:dc="http://purl.org/dc/elements/1.1/" xmlns:cc="http://creativecommons.org/ns#" xmlns:rdf="http://www.w3.org/1999/02/22-rdf-syntax-ns#">
   <cc:Work>
    <dc:type rdf:resource="http://purl.org/dc/dcmitype/StillImage"/>
    <dc:date>2026-06-08T14:08:02.452371</dc:date>
    <dc:format>image/svg+xml</dc:format>
    <dc:creator>
     <cc:Agent>
      <dc:title>Matplotlib v3.10.0, https://matplotlib.org/</dc:title>
     </cc:Agent>
    </dc:creator>
   </cc:Work>
  </rdf:RDF>
 </metadata>
 <defs>
  <style type="text/css">*{stroke-linejoin: round; stroke-linecap: butt}</style>
 </defs>
 <g id="figure_1">
  <g id="patch_1">
   <path d="M 0 268.478437 
L 347.76 268.478437 
L 347.76 0 
L 0 0 
z
" style="fill: #ffffff"/>
  </g>
  <g id="axes_1">
   <g id="patch_2">
    <path d="M 20.5344 116.990437 
L 90.54 116.990437 
Q 97.2072 116.990437 97.2072 112.180837 
L 97.2072 68.894437 
Q 97.2072 64.084837 90.54 64.084837 
L 20.5344 64.084837 
Q 13.8672 64.084837 13.8672 68.894437 
L 13.8672 112.180837 
Q 13.8672 116.990437 20.5344 116.990437 
z
" clip-path="url(#pa33a34bf9a)" style="fill: #f5f5f5; stroke: #444444; stroke-linejoin: miter"/>
   </g>
   <g id="patch_3">
    <path d="M 110.5416 116.990437 
L 197.2152 116.990437 
Q 203.8824 116.990437 203.8824 112.180837 
L 203.8824 68.894437 
Q 203.8824 64.084837 197.2152 64.084837 
L 110.5416 64.084837 
Q 103.8744 64.084837 103.8744 68.894437 
L 103.8744 112.180837 
Q 103.8744 116.990437 110.5416 116.990437 
z
" clip-path="url(#pa33a34bf9a)" style="fill: #f5f5f5; stroke: #444444; stroke-linejoin: miter"/>
   </g>
   <g id="patch_4">
    <path d="M 217.2168 116.990437 
L 297.2232 116.990437 
Q 303.8904 116.990437 303.8904 112.180837 
L 303.8904 68.894437 
Q 303.8904 64.084837 297.2232 64.084837 
L 217.2168 64.084837 
Q 210.5496 64.084837 210.5496 68.894437 
L 210.5496 112.180837 
Q 210.5496 116.990437 217.2168 116.990437 
z
" clip-path="url(#pa33a34bf9a)" style="fill: #f5f5f5; stroke: #444444; stroke-linejoin: miter"/>
   </g>
   <g id="patch_5">
    <path d="M 110.5416 213.182437 
L 213.8832 213.182437 
Q 220.5504 213.182437 220.5504 208.372837 
L 220.5504 165.086437 
Q 220.5504 160.276837 213.8832 160.276837 
L 110.5416 160.276837 
Q 103.8744 160.276837 103.8744 165.086437 
L 103.8744 208.372837 
Q 103.8744 213.182437 110.5416 213.182437 
z
" clip-path="url(#pa33a34bf9a)" style="fill: #f5f5f5; stroke: #444444; stroke-linejoin: miter"/>
   </g>
   <g id="text_1">
    <text style="font-size: 9px; font-family: 'DejaVu Sans', 'Bitstream Vera Sans', 'Computer Modern Sans Serif', 'Lucida Grande', 'Verdana', 'Geneva', 'Lucid', 'Arial', 'Helvetica', 'Avant Garde', sans-serif; text-anchor: middle" x="55.5372" y="93.021075" transform="rotate(-0 55.5372 93.021075)">sample x0</text>
   </g>
   <g id="text_2">
    <text style="font-size: 9px; font-family: 'DejaVu Sans', 'Bitstream Vera Sans', 'Computer Modern Sans Serif', 'Lucida Grande', 'Verdana', 'Geneva', 'Lucid', 'Arial', 'Helvetica', 'Avant Garde', sans-serif" transform="translate(128.225587 87.982059)">ODE rollout</text>
    <text style="font-size: 9px; font-family: 'DejaVu Sans', 'Bitstream Vera Sans', 'Computer Modern Sans Serif', 'Lucida Grande', 'Verdana', 'Geneva', 'Lucid', 'Arial', 'Helvetica', 'Avant Garde', sans-serif" transform="translate(117.834806 98.060091)">learned velocity</text>
   </g>
   <g id="text_3">
    <text style="font-size: 9px; font-family: 'DejaVu Sans', 'Bitstream Vera Sans', 'Computer Modern Sans Serif', 'Lucida Grande', 'Verdana', 'Geneva', 'Lucid', 'Arial', 'Helvetica', 'Avant Garde', sans-serif" transform="translate(234.319922 87.982059)">endpoint /</text>
    <text style="font-size: 9px; font-family: 'DejaVu Sans', 'Bitstream Vera Sans', 'Computer Modern Sans Serif', 'Lucida Grande', 'Verdana', 'Geneva', 'Lucid', 'Arial', 'Helvetica', 'Avant Garde', sans-serif" transform="translate(230.598281 98.060091)">density loss</text>
   </g>
   <g id="text_4">
    <text style="font-size: 9px; font-family: 'DejaVu Sans', 'Bitstream Vera Sans', 'Computer Modern Sans Serif', 'Lucida Grande', 'Verdana', 'Geneva', 'Lucid', 'Arial', 'Helvetica', 'Avant Garde', sans-serif" transform="translate(141.302166 184.174059)">backprop</text>
    <text style="font-size: 9px; font-family: 'DejaVu Sans', 'Bitstream Vera Sans', 'Computer Modern Sans Serif', 'Lucida Grande', 'Verdana', 'Geneva', 'Lucid', 'Arial', 'Helvetica', 'Avant Garde', sans-serif" transform="translate(129.473494 194.252091)">through solver</text>
   </g>
   <g id="patch_6">
    <path d="M 92.53723 90.537637 
Q 100.539416 90.537637 107.199962 90.537637 
" style="fill: none; stroke: #444444; stroke-width: 1.2; stroke-linecap: round"/>
    <path d="M 103.599962 88.737637 
L 107.199962 90.537637 
L 103.599962 92.337637 
" style="fill: none; stroke: #444444; stroke-width: 1.2; stroke-linecap: round"/>
   </g>
   <g id="patch_7">
    <path d="M 199.21243 90.537637 
Q 207.214616 90.537637 213.875162 90.537637 
" style="fill: none; stroke: #444444; stroke-width: 1.2; stroke-linecap: round"/>
    <path d="M 210.275162 88.737637 
L 213.875162 90.537637 
L 210.275162 92.337637 
" style="fill: none; stroke: #444444; stroke-width: 1.2; stroke-linecap: round"/>
   </g>
   <g id="patch_8">
    <path d="M 248.846731 113.222223 
Q 207.21736 138.632807 166.733149 163.344386 
" style="fill: none; stroke: #444444; stroke-width: 1.2; stroke-linecap: round"/>
    <path d="M 170.74375 163.005149 
L 166.733149 163.344386 
L 168.86812 159.932363 
" style="fill: none; stroke: #444444; stroke-width: 1.2; stroke-linecap: round"/>
   </g>
   <g id="patch_9">
    <path d="M 152.755137 163.429908 
Q 136.484106 138.632728 151.836243 115.237666 
" style="fill: none; stroke: #0072b2; stroke-width: 1.5; stroke-linecap: round"/>
    <path d="M 148.356246 117.259947 
L 151.836243 115.237666 
L 151.36607 119.235032 
" style="fill: none; stroke: #0072b2; stroke-width: 1.5; stroke-linecap: round"/>
   </g>
   <g id="text_5">
    <text style="font-weight: 700; font-size: 10px; font-family: 'DejaVu Sans', 'Bitstream Vera Sans', 'Computer Modern Sans Serif', 'Lucida Grande', 'Verdana', 'Geneva', 'Lucid', 'Arial', 'Helvetica', 'Avant Garde', sans-serif; text-anchor: start; fill: #0072b2" x="20.5344" y="49.656037" transform="rotate(-0 20.5344 49.656037)">CNF training bottleneck</text>
   </g>
   <g id="text_6">
    <text style="font-weight: 700; font-size: 9px; font-family: 'DejaVu Sans', 'Bitstream Vera Sans', 'Computer Modern Sans Serif', 'Lucida Grande', 'Verdana', 'Geneva', 'Lucid', 'Arial', 'Helvetica', 'Avant Garde', sans-serif; fill: #0072b2" transform="translate(78.217538 126.150806)">solver inside</text>
    <text style="font-weight: 700; font-size: 9px; font-family: 'DejaVu Sans', 'Bitstream Vera Sans', 'Computer Modern Sans Serif', 'Lucida Grande', 'Verdana', 'Geneva', 'Lucid', 'Arial', 'Helvetica', 'Avant Garde', sans-serif; fill: #0072b2" transform="translate(77.908163 136.228837)">training loop</text>
   </g>
   <g id="text_7">
    <text style="font-size: 10px; font-family: 'DejaVu Sans', 'Bitstream Vera Sans', 'Computer Modern Sans Serif', 'Lucida Grande', 'Verdana', 'Geneva', 'Lucid', 'Arial', 'Helvetica', 'Avant Garde', sans-serif; text-anchor: middle" x="173.88" y="14.798437" transform="rotate(-0 173.88 14.798437)">CNF training control flow</text>
   </g>
  </g>
 </g>
 <defs>
  <clipPath id="pa33a34bf9a">
   <rect x="7.2" y="20.798437" width="333.36" height="240.48"/>
  </clipPath>
 </defs>
</svg>
